<svg xmlns="http://www.w3.org/2000/svg" xmlns:xlink="http://www.w3.org/1999/xlink" viewBox="0 0 1541.939 440.487"><defs><style>.d{stroke:#38d7ff}.b,.d,.e,.g{stroke-miterlimit:10;stroke-width:2px}.b,.d,.g{fill:none}.b{stroke:#80c0ff}.c{fill:#38d7ff}.e{fill:#033cc2}.e,.g{stroke:#fcfcfc}</style><linearGradient id="a" x1=".498" y1=".016" x2=".498" y2="1.028" gradientUnits="objectBoundingBox"><stop offset="0" stop-color="#3da4f9" stop-opacity=".929"/><stop offset="1" stop-color="#3da4f9" stop-opacity="0"/></linearGradient><linearGradient id="b" x1=".498" y1=".006" x2=".498" y2=".951" xlink:href="#a"/><linearGradient id="c" x1=".503" y1=".006" x2=".503" y2=".952" xlink:href="#a"/><linearGradient id="d" x1="-8.47" y1=".006" x2="-8.47" y2=".952" xlink:href="#a"/><linearGradient id="e" x1=".496" y1=".006" x2=".496" y2=".95" xlink:href="#a"/></defs><g transform="translate(4743.852 11742.709)"><path d="M492.438 305.869h-28.814c0-3.929-.437-16.153 2.838-20.082h-5.675v-29.469h-10.7v16.59h-20.3v9.6h-29.248v-9.6h-20.3V256.1h-10.7v29.469h-5.676c3.274 3.929 2.838 16.153 2.838 20.082H337.89s.218 40.383-36.891 50.861h228.766c-37.545-10.259-37.327-50.643-37.327-50.643z" transform="translate(-4387.829 -11659.932)" fill="url(#a)" stroke-miterlimit="10" stroke-width="2" stroke="#38d7ff"/><path class="b" d="M-4288.526-11497.694l21.829-21.829a7.246 7.246 0 0 1 10.259 0l33.835 33.835"/><path class="b" d="M-4116.952-11505.553l-52.171-52.171a7.246 7.246 0 0 0-10.259 0l-57.628 57.628M-4053.431-11485.689l-36.454-36.454a7.246 7.246 0 0 0-10.26 0l-43.875 43.876"/><path class="b" d="M-4145.548-11534.149s-2.183 12.006-12.006 12.006-15.062-13.1-21.392-13.752c-3.711-.437-8.513 6.767-13.1 6.767s-8.074-8.077-8.074-8.077M-4143.365-11450.982a22.843 22.843 0 0 1 17.681-8.295 22.553 22.553 0 0 1 18.555 9.6M-3837.763-11463.424a22.843 22.843 0 0 1 17.681-8.295 22.552 22.552 0 0 1 18.554 9.6M-4310.791-11484.598a25.756 25.756 0 0 1 43.657-1.528M-4230.025-11455.344a60.833 60.833 0 0 1 103.9-3.5M-3892.335-11492.456l46.713-46.713a8.3 8.3 0 0 1 11.788 0l43.221 43.221"/><path class="b" d="M-3815.934-11471.282l63.74-63.74a8.3 8.3 0 0 1 11.788 0l57.628 57.628M-3816.807-11522.143l22.92-22.92a8.3 8.3 0 0 1 11.787 0l19.864 19.864"/><path class="b" d="M-3784.501-11502.719s6.549 6.985 15.5 6.985 18.336-12.879 24.012-12.879 9.386 8.295 14.844 8.295c8.95 0 15.062-9.6 15.062-9.6M-3815.716-11521.052c-2.838 0-5.021 3.929-11.133 3.929s-9.168-7.858-14.625-7.858-8.295 5.021-11.569 5.021c-2.838 0-6.985-4.8-6.985-4.8M-3720.325-11464.515a35.153 35.153 0 0 1 56.755.437"/><circle class="c" cx="3.274" cy="3.274" r="3.274" transform="translate(-4504.194 -11525.417)"/><circle class="c" cx="3.274" cy="3.274" r="3.274" transform="translate(-4532.79 -11514.284)"/><circle class="c" cx="3.274" cy="3.274" r="3.274" transform="translate(-4553.527 -11528.691)"/><circle class="c" cx="3.274" cy="3.274" r="3.274" transform="translate(-4378.242 -11435.92)"/><circle class="c" cx="3.274" cy="3.274" r="3.274" transform="translate(-4354.885 -11449.017)"/><circle class="c" cx="3.274" cy="3.274" r="3.274" transform="translate(-4196.845 -11331.142)"/><circle class="c" cx="3.274" cy="3.274" r="3.274" transform="translate(-4155.589 -11323.283)"/><circle class="c" cx="3.274" cy="3.274" r="3.274" transform="translate(-4128.74 -11337.472)"/><circle class="c" cx="3.274" cy="3.274" r="3.274" transform="translate(-3848.022 -11326.558)"/><circle class="c" cx="3.274" cy="3.274" r="3.274" transform="translate(-3818.335 -11320.009)"/><circle class="c" cx="3.274" cy="3.274" r="3.274" transform="translate(-3804.802 -11342.492)"/><circle class="c" cx="3.274" cy="3.274" r="3.274" transform="translate(-3751.54 -11321.755)"/><circle class="c" cx="3.274" cy="3.274" r="3.274" transform="translate(-3680.16 -11395.536)"/><circle class="c" cx="3.274" cy="3.274" r="3.274" transform="translate(-3667.062 -11405.359)"/><circle class="c" cx="3.274" cy="3.274" r="3.274" transform="translate(-3657.239 -11392.698)"/><circle class="c" cx="3.274" cy="3.274" r="3.274" transform="translate(-3583.677 -11447.271)"/><circle class="c" cx="3.274" cy="3.274" r="3.274" transform="translate(-3583.677 -11467.135)"/><circle class="c" cx="3.274" cy="3.274" r="3.274" transform="translate(-3448.338 -11510.573)"/><circle class="c" cx="3.274" cy="3.274" r="3.274" transform="translate(-3415.813 -11523.452)"/><circle class="c" cx="3.274" cy="3.274" r="3.274" transform="translate(-3295.756 -11427.188)"/><circle class="c" cx="3.274" cy="3.274" r="3.274" transform="translate(-3279.603 -11427.188)"/><circle class="c" cx="3.274" cy="3.274" r="3.274" transform="translate(-3603.977 -11456.22)"/><circle class="c" cx="3.274" cy="3.274" r="3.274" transform="translate(-4111.495 -11324.375)"/><path class="d" d="M-4007.805-11345.767s.218 36.017-31 42.566M-3935.992-11332.888c2.838 11.133 10.259 25.758 29.25 29.687M-3986.853-11342.929v22.702M-3968.08-11371.524v22.047M-3947.998-11371.524v10.914M-3911.544-11347.295v14.407M-4031.82-11340.092v-7.203"/><circle class="c" cx="3.929" cy="3.929" r="3.929" transform="translate(-4000.823 -11364.539)"/><circle class="c" cx="4.147" cy="4.147" r="4.147" transform="translate(-3957.166 -11328.74)"/><circle class="b" cx="6.33" cy="6.33" r="6.33" transform="translate(-4082.899 -11342.492)"/><circle class="b" cx="6.33" cy="6.33" r="6.33" transform="translate(-3877.055 -11342.492)"/><path class="d" d="M-4629.709-11394.227a57.529 57.529 0 0 1 98.011.218M-4743-11409.942a76.765 76.765 0 0 1 130.1-1.746M-4168.687-11344.894a39.116 39.116 0 0 1 37.982-29.469 39.514 39.514 0 0 1 38.2 29.905M-4326.944-11386.586a38.617 38.617 0 0 1 32.088-16.808 39.267 39.267 0 0 1 39.292 39.292M-4213.217-11337.472a31 31 0 0 1 44.531-7.422M-4265.387-11390.079a57.5 57.5 0 0 1 104.123 29.905M-4414.914-11474.556a86.791 86.791 0 0 1 117.657 70.943M-4454.643-11443.556a85.273 85.273 0 0 1 39.947-31M-4670.965-11446.834a137.445 137.445 0 0 1 256.706-27.941"/><circle class="c" cx="3.274" cy="3.274" r="3.274" transform="translate(-3448.12 -11525.417)"/><circle class="c" cx="3.274" cy="3.274" r="3.274" transform="translate(-3419.306 -11514.284)"/><circle class="c" cx="3.274" cy="3.274" r="3.274" transform="translate(-3398.569 -11528.691)"/><circle class="c" cx="3.274" cy="3.274" r="3.274" transform="translate(-3574.072 -11435.92)"/><circle class="c" cx="3.274" cy="3.274" r="3.274" transform="translate(-3597.21 -11449.017)"/><circle class="c" cx="3.274" cy="3.274" r="3.274" transform="translate(-3755.469 -11331.142)"/><circle class="c" cx="3.274" cy="3.274" r="3.274" transform="translate(-3796.507 -11323.283)"/><circle class="c" cx="3.274" cy="3.274" r="3.274" transform="translate(-3823.356 -11337.472)"/><circle class="c" cx="3.274" cy="3.274" r="3.274" transform="translate(-3840.819 -11324.375)"/><path class="d" d="M-3316.056-11394.227a57.53 57.53 0 0 0-98.011.218M-3202.765-11409.942a76.765 76.765 0 0 0-130.1-1.746M-3776.861-11344.894a39.116 39.116 0 0 0-37.982-29.469 39.514 39.514 0 0 0-38.2 29.905M-3618.821-11386.586a38.617 38.617 0 0 0-32.088-16.808 39.267 39.267 0 0 0-39.292 39.292M-3732.548-11337.472a31 31 0 0 0-44.531-7.422M-3680.377-11390.079a57.5 57.5 0 0 0-104.123 29.905M-3530.851-11474.556a86.791 86.791 0 0 0-117.657 70.943M-3491.122-11443.556a85.273 85.273 0 0 0-39.947-31M-3274.8-11446.834a137.445 137.445 0 0 0-256.706-27.941"/><path class="e" d="M-3924.641-11463.423v-179.869c0-21.829-6.33-43.439-15.717-63.085-6.767-13.752-16.153-27.286-29.032-34.271a8.789 8.789 0 0 0-8.077 0c-12.879 6.985-22.265 20.519-29.032 34.271a143.6 143.6 0 0 0-14.189 63.3v179.872"/><path d="M362.753 102.232c-1.091-1.31-2.619-1.31-3.493 0-12.005 16.368-12.66 75.968-12.66 82.076v55.663l29.032-.218v-55.008c0 .218-.218-65.045-12.879-82.513z" transform="translate(-4333.89 -11843.099)" fill="url(#b)"/><path class="g" d="M-4009.555-11700.265h71.816M-3968.08-11684.111h35.581M-3943.196-11651.805v21.174M-4031.82-11420.421v16.59"/><path class="e" d="M-3945.815-11423.913c0 3.056-12.006 5.457-27.068 5.457-14.843 0-27.068-2.4-27.068-5.457v-156.73a83.421 83.421 0 0 1 1.31-14.844c1.746-10.478 6.112-27.941 16.153-43.221a11.626 11.626 0 0 1 19.209 0c10.041 15.28 14.407 32.743 16.153 43.221a85.269 85.269 0 0 1 1.31 14.844z"/><path class="e" d="M-4007.809-11415.183s-.218-9.6 7.858-10.26v-113.945a263.514 263.514 0 0 1-8.731 41.475c-6.767 22.484-10.041 33.835-18.336 42.784-13.97 15.5-28.159 13.97-36.891 30.56-4.147 7.858-4.8 15.5-5.021 20.737h60.9v-11.351zM-4018.605-11374.302h-34.489v-29.469h34.489z"/><path class="e" d="M-4024.18-11374.363c3.274 3.929 2.838 16.153 2.838 20.082h-28.814c0-3.929-.437-16.153 2.838-20.082zM-3945.815-11425.66v1.528c0 3.056-12.006 5.457-27.068 5.457s-27.068-2.4-27.068-5.457v-1.528c-8.077.655-7.858 10.259-7.858 10.259v28.159h69.634v-28.159c.218 0 .436-9.604-7.64-10.259z"/><path class="g" d="M-3996.895-11398.156h-10.914M-3948.871-11398.156h10.914"/><path class="e" d="M-3963.278-11417.802c-3.056.218-6.112.437-9.6.437s-6.549-.218-9.6-.437a6.23 6.23 0 0 0-3.711 3.274 10.14 10.14 0 0 0-1.31 5.021v31.87h29.25v-31.87a10.14 10.14 0 0 0-1.31-5.021 6.936 6.936 0 0 0-3.719-3.274zM-4020.906-11539.388s-.218-47.8-14.189-60.466a2.767 2.767 0 0 0-3.929 0c-13.97 12.657-14.188 60.466-14.188 60.466v103.032c7.858-5.675 17.245-8.513 26.631-18.773a56.805 56.805 0 0 0 5.894-8.295v-75.964z"/><path d="M332.453 165.9a3.047 3.047 0 0 0-1.965.655c-13.97 12.66-14.188 60.465-14.188 60.465v103.032c5.021-3.493 10.478-5.894 16.153-9.823z" transform="translate(-4369.73 -11766.627)" fill="url(#c)"/><path class="g" d="M-4020.906-11539.388s-.218-47.8-14.189-60.466a2.767 2.767 0 0 0-3.929 0c-13.97 12.657-14.188 60.466-14.188 60.466v103.032c7.858-5.675 17.245-8.513 26.631-18.773a56.805 56.805 0 0 0 5.894-8.295v-75.964zM-4035.75-11527.818h-17.681"/><path class="e" d="M-4053.431-11539.388h32.525M-3937.957-11415.183s.218-9.6-7.858-10.26v-113.945a263.5 263.5 0 0 0 8.731 41.475c6.767 22.484 10.041 33.835 18.336 42.784 13.97 15.5 28.159 13.97 36.89 30.56 4.147 7.858 4.8 15.5 5.021 20.737h-60.9v-11.351zM-3927.042-11403.831h34.489v29.469h-34.489z"/><path class="e" d="M-3921.585-11374.363c-3.274 3.929-2.838 16.153-2.838 20.082h28.814c0-3.929.437-16.153-2.838-20.082zM-3924.642-11539.388s.218-47.8 14.189-60.466a2.767 2.767 0 0 1 3.929 0c13.97 12.661 14.189 60.466 14.189 60.466v103.032c-7.858-5.675-17.245-8.513-26.631-18.773a56.8 56.8 0 0 1-5.894-8.295v-75.964z"/><path d="M382.7 165.9a3.047 3.047 0 0 1 1.965.655c13.97 12.661 14.189 60.465 14.189 60.465v103.032c-5.021-3.493-10.478-5.894-16.153-9.823z" transform="translate(-4291.188 -11766.627)" fill="url(#d)"/><path class="g" d="M-3924.642-11539.388s.218-47.8 14.189-60.466a2.767 2.767 0 0 1 3.929 0c13.97 12.661 14.189 60.466 14.189 60.466v103.032c-7.858-5.675-17.245-8.513-26.631-18.773a56.8 56.8 0 0 1-5.894-8.295v-75.964zM-3909.798-11527.818h17.463"/><path class="e" d="M-3892.334-11539.388h-32.307"/><path class="g" d="M-3999.95-11437.229h26.194"/><path d="M359.023 147.544c-.655-1.091-1.528-1.091-2.183 0-7.2 12.006-7.64 55.663-7.64 60.029v163.933h17.681v-163.5s-.218-47.806-7.858-60.462z" transform="translate(-4330.814 -11789.308)" fill="url(#e)"/><path class="g" d="M-3987.944-11582.172c2.619-4.584 8.295-7.64 15.062-7.64s12.442 3.056 15.062 7.64"/><circle class="g" cx="5.675" cy="5.675" r="5.675" transform="translate(-3978.558 -11527.819)"/><path class="g" d="M-3986.416-11522.144h8.077M-3972.882-11535.896v8.077M-3959.13-11522.144h-8.077M-3972.882-11508.61v-8.077M-3999.95-11554.886h54.135M-3989.472-11625.829h33.18"/></g></svg>