<svg xmlns="http://www.w3.org/2000/svg" xmlns:xlink="http://www.w3.org/1999/xlink" viewBox="0 0 1364 766"><defs><style>.e,.f,.i{stroke:#38d7ff}.d,.e,.f,.i,.j,.k,.m,.o{stroke-miterlimit:10;stroke-width:2px}.d,.e,.o{fill:none}.d{stroke:#80c0ff}.f,.j,.k{fill:#104ffb}.i{fill:#06f}.j,.k{stroke:#fff}.k{stroke-dasharray:1}.l{fill:#38d7ff}.m{fill:#033cc2}.m,.o{stroke:#fcfcfc}</style><clipPath id="a"><path fill="#fff" stroke="#707070" d="M0 0h1364v766H0z"/></clipPath><linearGradient id="b" x1=".498" y1=".016" x2=".498" y2="1.028" gradientUnits="objectBoundingBox"><stop offset="0" stop-color="#3da4f9" stop-opacity=".929"/><stop offset="1" stop-color="#3da4f9" stop-opacity="0"/></linearGradient><linearGradient id="c" x1=".498" y1=".006" x2=".498" y2=".951" xlink:href="#b"/><linearGradient id="d" x1=".503" y1=".006" x2=".503" y2=".952" xlink:href="#b"/><linearGradient id="e" x1="-8.47" y1=".006" x2="-8.47" y2=".952" xlink:href="#b"/><linearGradient id="f" x1=".496" y1=".006" x2=".496" y2=".95" xlink:href="#b"/></defs><g clip-path="url(#a)"><g transform="translate(262.426 106.608)"><path d="M492.438 305.869h-28.814c0-3.929-.437-16.153 2.838-20.082h-5.675v-29.469h-10.7v16.59h-20.3v9.6h-29.248v-9.6h-20.3V256.1h-10.7v29.469h-5.676c3.274 3.929 2.838 16.153 2.838 20.082H337.89s.218 40.383-36.891 50.861h228.766c-37.545-10.259-37.327-50.643-37.327-50.643z" transform="translate(355.571 302.46)" fill="url(#b)" stroke-miterlimit="10" stroke-width="2" stroke="#38d7ff"/><path class="d" d="M454.874 464.697l21.829-21.829a7.246 7.246 0 0 1 10.259 0l33.835 33.835"/><path class="d" d="M626.448 456.839l-52.171-52.171a7.246 7.246 0 0 0-10.259 0l-57.628 57.628M689.969 476.702l-36.454-36.454a7.246 7.246 0 0 0-10.26 0l-43.875 43.876"/><path class="d" d="M597.852 428.243s-2.183 12.006-12.006 12.006-15.062-13.1-21.392-13.752c-3.711-.437-8.513 6.767-13.1 6.767s-8.074-8.077-8.074-8.077M600.035 511.41a22.843 22.843 0 0 1 17.681-8.295 22.553 22.553 0 0 1 18.555 9.6M905.637 498.968a22.843 22.843 0 0 1 17.681-8.295 22.552 22.552 0 0 1 18.554 9.6M432.609 477.794a25.756 25.756 0 0 1 43.657-1.528M513.375 507.048a60.833 60.833 0 0 1 103.9-3.5M851.065 469.936l46.713-46.713a8.3 8.3 0 0 1 11.788 0l43.221 43.221"/><path class="d" d="M927.466 491.11l63.74-63.74a8.3 8.3 0 0 1 11.788 0l57.628 57.628M926.593 440.249l22.92-22.92a8.3 8.3 0 0 1 11.787 0l19.864 19.864"/><path class="d" d="M958.899 459.673s6.549 6.985 15.5 6.985 18.336-12.879 24.012-12.879 9.386 8.295 14.844 8.295c8.95 0 15.062-9.6 15.062-9.6M927.684 441.34c-2.838 0-5.021 3.929-11.133 3.929s-9.168-7.858-14.625-7.858-8.295 5.021-11.569 5.021c-2.838 0-6.985-4.8-6.985-4.8M1023.076 497.877a35.153 35.153 0 0 1 56.755.437"/><path class="e" d="M888.403 320.371c6.33-8.077 15.28-16.372 26.413-17.026 26.631-1.091 29.032 43.657 60.029 43.876 40.165.218 41.256-75.091 67.887-75.527 10.26-.218 25.1 10.7 43.657 63.3"/><circle class="f" cx="6.112" cy="6.112" r="6.112" transform="translate(882.291 314.258)"/><circle class="f" cx="6.112" cy="6.112" r="6.112" transform="translate(908.703 297.45)"/><circle class="f" cx="6.112" cy="6.112" r="6.112" transform="translate(968.732 341.108)"/><circle class="f" cx="6.112" cy="6.112" r="6.112" transform="translate(1080.277 329.102)"/><circle class="f" cx="6.112" cy="6.112" r="6.112" transform="translate(1036.62 265.799)"/><g transform="translate(786.428 32.034)"><g transform="translate(0 6.112)"><circle cx="62.867" cy="62.867" r="62.867" fill="#06f"/><path d="M125.733 62.867A62.867 62.867 0 1 1 62.867 0a62.883 62.883 0 0 1 62.866 62.867z" stroke-dasharray=".995 .995" fill="none" stroke-miterlimit="10" stroke-width="2" stroke="#38d7ff"/></g><circle class="i" cx="36.454" cy="36.454" r="36.454" transform="translate(26.413 32.525)"/><circle class="i" cx="6.112" cy="6.112" r="6.112" transform="translate(56.755)"/><circle class="i" cx="6.112" cy="6.112" r="6.112" transform="translate(56.755 125.733)"/></g><g transform="translate(775.295 26.576)"><circle class="j" cx="6.112" cy="6.112" r="6.112" transform="translate(135.775 136.43)"/><circle class="j" cx="6.112" cy="6.112" r="6.112" transform="translate(0 136.43)"/><circle class="j" cx="6.112" cy="6.112" r="6.112"/><circle class="j" cx="6.112" cy="6.112" r="6.112" transform="translate(135.775)"/></g><circle class="j" cx="5.675" cy="5.675" r="5.675" transform="translate(843.619 95.337)"/><path class="j" d="M835.542 101.012h8.077M849.295 87.26v8.077M862.829 101.012h-8.077M849.295 114.546v-7.858"/><path class="k" d="M1384.123 336.563l-24.012-24.012M1019.583 125.261L968.94 74.618M1006.049 287.448l-25.103-25.103M614.224 326.74l-64.395-64.395M539.351 287.448l-23.357-23.575M674.689 28.122L646.967.4M418.202 250.339l-26.413-26.631M522.003 88.322l-48.241-48.46"/><path class="e" d="M460.399 146.067c7.64-8.954 18.773-18.554 32.307-18.554 25.1 0 31.87 34.489 56.755 36.454 27.068 2.4 39.073-36.454 67.232-35.363 18.336.655 32.961 18.118 42.566 33.18"/><circle class="f" cx="6.112" cy="6.112" r="6.112" transform="translate(454.287 139.955)"/><circle class="f" cx="6.112" cy="6.112" r="6.112" transform="translate(486.594 121.401)"/><circle class="f" cx="6.112" cy="6.112" r="6.112" transform="translate(546.841 158.073)"/><circle class="f" cx="6.112" cy="6.112" r="6.112" transform="translate(610.363 122.492)"/><circle class="f" cx="6.112" cy="6.112" r="6.112" transform="translate(652.929 155.89)"/><circle class="l" cx="3.274" cy="3.274" r="3.274" transform="translate(239.206 436.974)"/><circle class="l" cx="3.274" cy="3.274" r="3.274" transform="translate(210.611 448.107)"/><circle class="l" cx="3.274" cy="3.274" r="3.274" transform="translate(189.873 433.7)"/><circle class="l" cx="3.274" cy="3.274" r="3.274" transform="translate(365.158 526.472)"/><circle class="l" cx="3.274" cy="3.274" r="3.274" transform="translate(388.515 513.375)"/><circle class="l" cx="3.274" cy="3.274" r="3.274" transform="translate(546.555 631.25)"/><circle class="l" cx="3.274" cy="3.274" r="3.274" transform="translate(587.811 639.108)"/><circle class="l" cx="3.274" cy="3.274" r="3.274" transform="translate(614.66 624.92)"/><circle class="l" cx="3.274" cy="3.274" r="3.274" transform="translate(895.378 635.834)"/><circle class="l" cx="3.274" cy="3.274" r="3.274" transform="translate(925.065 642.383)"/><circle class="l" cx="3.274" cy="3.274" r="3.274" transform="translate(938.598 619.899)"/><circle class="l" cx="3.274" cy="3.274" r="3.274" transform="translate(991.86 640.636)"/><circle class="l" cx="3.274" cy="3.274" r="3.274" transform="translate(1063.24 566.855)"/><circle class="l" cx="3.274" cy="3.274" r="3.274" transform="translate(1076.338 557.032)"/><circle class="l" cx="3.274" cy="3.274" r="3.274" transform="translate(1086.161 569.693)"/><circle class="l" cx="3.274" cy="3.274" r="3.274" transform="translate(1159.723 515.121)"/><circle class="l" cx="3.274" cy="3.274" r="3.274" transform="translate(1159.723 495.257)"/><circle class="l" cx="3.274" cy="3.274" r="3.274" transform="translate(1295.061 451.818)"/><circle class="l" cx="3.274" cy="3.274" r="3.274" transform="translate(1327.586 438.939)"/><circle class="l" cx="3.274" cy="3.274" r="3.274" transform="translate(1447.644 535.204)"/><circle class="l" cx="3.274" cy="3.274" r="3.274" transform="translate(1463.797 535.204)"/><circle class="l" cx="3.274" cy="3.274" r="3.274" transform="translate(1139.423 506.171)"/><circle class="l" cx="3.274" cy="3.274" r="3.274" transform="translate(631.905 638.017)"/><circle class="l" cx="3.274" cy="3.274" r="3.274" transform="translate(351.406 412.963)"/><circle class="l" cx="3.274" cy="3.274" r="3.274" transform="translate(546.555 349.223)"/><path class="e" d="M735.595 616.625s.218 36.017-31 42.566M807.408 629.504c2.838 11.133 10.259 25.758 29.25 29.687M756.547 619.463v22.702M775.32 590.867v22.047M795.402 590.867v10.914M831.856 615.097v14.407M711.58 622.3v-7.203"/><circle class="l" cx="3.929" cy="3.929" r="3.929" transform="translate(742.576 597.852)"/><circle class="l" cx="4.147" cy="4.147" r="4.147" transform="translate(786.234 633.651)"/><circle class="d" cx="6.33" cy="6.33" r="6.33" transform="translate(660.5 619.899)"/><circle class="d" cx="6.33" cy="6.33" r="6.33" transform="translate(866.345 619.899)"/><path class="e" d="M113.691 568.165a57.529 57.529 0 0 1 98.011.218M.4 552.449a76.765 76.765 0 0 1 130.1-1.746M574.714 617.498a39.116 39.116 0 0 1 37.982-29.469 39.514 39.514 0 0 1 38.2 29.905M416.455 575.805a38.617 38.617 0 0 1 32.088-16.808 39.267 39.267 0 0 1 39.292 39.292M530.183 624.92a31 31 0 0 1 44.531-7.422M478.012 572.313a57.5 57.5 0 0 1 104.123 29.905M328.486 487.836a86.791 86.791 0 0 1 117.657 70.943M288.757 518.835a85.273 85.273 0 0 1 39.947-31M72.435 515.558a137.445 137.445 0 0 1 256.706-27.941"/><circle class="l" cx="3.274" cy="3.274" r="3.274" transform="translate(1295.28 436.974)"/><circle class="l" cx="3.274" cy="3.274" r="3.274" transform="translate(1324.094 448.107)"/><circle class="l" cx="3.274" cy="3.274" r="3.274" transform="translate(1344.831 433.7)"/><circle class="l" cx="3.274" cy="3.274" r="3.274" transform="translate(1169.328 526.472)"/><circle class="l" cx="3.274" cy="3.274" r="3.274" transform="translate(1146.189 513.375)"/><circle class="l" cx="3.274" cy="3.274" r="3.274" transform="translate(987.931 631.25)"/><circle class="l" cx="3.274" cy="3.274" r="3.274" transform="translate(946.893 639.108)"/><circle class="l" cx="3.274" cy="3.274" r="3.274" transform="translate(920.044 624.92)"/><circle class="l" cx="3.274" cy="3.274" r="3.274" transform="translate(902.581 638.017)"/><path class="e" d="M1427.344 568.165a57.53 57.53 0 0 0-98.011.218M1540.635 552.449a76.765 76.765 0 0 0-130.1-1.746M966.539 617.498a39.116 39.116 0 0 0-37.982-29.469 39.514 39.514 0 0 0-38.2 29.905M1124.579 575.805a38.617 38.617 0 0 0-32.088-16.808 39.267 39.267 0 0 0-39.292 39.292M1010.852 624.92a31 31 0 0 0-44.531-7.422M1063.022 572.313a57.5 57.5 0 0 0-104.123 29.905M1212.549 487.836a86.791 86.791 0 0 0-117.657 70.943M1252.278 518.835a85.273 85.273 0 0 0-39.947-31M1468.6 515.558a137.445 137.445 0 0 0-256.706-27.941"/><path class="f" d="M19.828 659.191h636.307M884.9 659.191h632.378"/><path class="m" d="M818.758 498.968V319.099c0-21.829-6.33-43.439-15.717-63.085-6.767-13.752-16.153-27.286-29.032-34.271a8.789 8.789 0 0 0-8.077 0c-12.879 6.985-22.265 20.519-29.032 34.271a143.6 143.6 0 0 0-14.189 63.3v179.872"/><path d="M362.753 102.232c-1.091-1.31-2.619-1.31-3.493 0-12.005 16.368-12.66 75.968-12.66 82.076v55.663l29.032-.218v-55.008c0 .218-.218-65.045-12.879-82.513z" transform="translate(409.51 119.293)" fill="url(#c)"/><path class="o" d="M733.845 262.127h71.816M775.319 278.28H810.9M800.204 310.586v21.174M711.58 541.971v16.59"/><path class="m" d="M797.585 538.478c0 3.056-12.006 5.457-27.068 5.457-14.843 0-27.068-2.4-27.068-5.457v-156.73a83.421 83.421 0 0 1 1.31-14.844c1.746-10.478 6.112-27.941 16.153-43.221a11.626 11.626 0 0 1 19.209 0c10.041 15.28 14.407 32.743 16.153 43.221a85.269 85.269 0 0 1 1.31 14.844z"/><path class="m" d="M735.591 547.209s-.218-9.6 7.858-10.26V423.004a263.514 263.514 0 0 1-8.731 41.475c-6.767 22.484-10.041 33.835-18.336 42.784-13.97 15.5-28.159 13.97-36.891 30.56-4.147 7.858-4.8 15.5-5.021 20.737h60.9v-11.351zM724.795 588.09h-34.489v-29.469h34.489z"/><path class="m" d="M719.22 588.029c3.274 3.929 2.838 16.153 2.838 20.082h-28.814c0-3.929-.437-16.153 2.838-20.082z"/><g><path class="m" d="M797.585 536.732v1.528c0 3.056-12.006 5.457-27.068 5.457s-27.068-2.4-27.068-5.457v-1.528c-8.077.655-7.858 10.259-7.858 10.259v28.159h69.634v-28.159c.218 0 .436-9.604-7.64-10.259z"/><path class="o" d="M746.506 564.236h-10.914M794.529 564.236h10.914"/><path class="m" d="M780.122 544.59c-3.056.218-6.112.437-9.6.437s-6.549-.218-9.6-.437a6.23 6.23 0 0 0-3.711 3.274 10.14 10.14 0 0 0-1.31 5.021v31.87h29.25v-31.87a10.14 10.14 0 0 0-1.31-5.021 6.936 6.936 0 0 0-3.719-3.274z"/></g><g><path class="m" d="M722.493 423.004s-.218-47.8-14.189-60.466a2.767 2.767 0 0 0-3.929 0c-13.97 12.657-14.188 60.466-14.188 60.466v103.032c7.858-5.675 17.245-8.513 26.631-18.773a56.805 56.805 0 0 0 5.894-8.295v-75.964z"/><path d="M332.453 165.9a3.047 3.047 0 0 0-1.965.655c-13.97 12.66-14.188 60.465-14.188 60.465v103.032c5.021-3.493 10.478-5.894 16.153-9.823z" transform="translate(373.669 195.765)" fill="url(#d)"/><path class="o" d="M722.493 423.004s-.218-47.8-14.189-60.466a2.767 2.767 0 0 0-3.929 0c-13.97 12.657-14.188 60.466-14.188 60.466v103.032c7.858-5.675 17.245-8.513 26.631-18.773a56.805 56.805 0 0 0 5.894-8.295v-75.964zM707.65 434.573h-17.681"/><path class="m" d="M689.969 423.004h32.525"/></g><g><path class="m" d="M805.443 547.209s.218-9.6-7.858-10.26V423.004a263.5 263.5 0 0 0 8.731 41.475c6.767 22.484 10.041 33.835 18.336 42.784 13.97 15.5 28.159 13.97 36.89 30.56 4.147 7.858 4.8 15.5 5.021 20.737h-60.9v-11.351zM816.358 558.56h34.489v29.469h-34.489zM821.815 588.029c-3.274 3.929-2.838 16.153-2.838 20.082h28.814c0-3.929.437-16.153-2.838-20.082z"/></g><g><path class="m" d="M818.758 423.004s.218-47.8 14.189-60.466a2.767 2.767 0 0 1 3.929 0c13.97 12.661 14.189 60.466 14.189 60.466v103.032c-7.858-5.675-17.245-8.513-26.631-18.773a56.8 56.8 0 0 1-5.894-8.295v-75.964z"/><path d="M382.7 165.9a3.047 3.047 0 0 1 1.965.655c13.97 12.661 14.189 60.465 14.189 60.465v103.032c-5.021-3.493-10.478-5.894-16.153-9.823z" transform="translate(452.212 195.765)" fill="url(#e)"/><path class="o" d="M818.758 423.004s.218-47.8 14.189-60.466a2.767 2.767 0 0 1 3.929 0c13.97 12.661 14.189 60.466 14.189 60.466v103.032c-7.858-5.675-17.245-8.513-26.631-18.773a56.8 56.8 0 0 1-5.894-8.295v-75.964zM833.602 434.573h17.463"/><path class="m" d="M851.065 423.004h-32.307"/></g><g><path class="o" d="M743.45 525.163h26.194"/><path d="M359.023 147.544c-.655-1.091-1.528-1.091-2.183 0-7.2 12.006-7.64 55.663-7.64 60.029v163.933h17.681v-163.5s-.218-47.806-7.858-60.462z" transform="translate(412.586 173.084)" fill="url(#f)"/><path class="o" d="M755.456 380.22c2.619-4.584 8.295-7.64 15.062-7.64s12.442 3.056 15.062 7.64"/><g transform="translate(756.984 426.497)"><circle class="o" cx="5.675" cy="5.675" r="5.675" transform="translate(7.858 8.077)"/><path class="o" d="M0 13.752h8.077M13.534 0v8.077M27.286 13.752h-8.077M13.534 27.286v-8.077"/></g><path class="o" d="M743.45 407.506h54.135M753.928 336.563h33.18"/></g></g></g></svg>