<svg id="logo" xmlns="http://www.w3.org/2000/svg" viewBox="0 0 440 82.935">
  <defs>
    <style>
      .cls-1 {
        fill: #fff;
      }
    </style>
  </defs>
  <path id="Path_56" data-name="Path 56" class="cls-1" d="M373.981,24.011a2.225,2.225,0,0,1-2.2-2.2,2.173,2.173,0,0,1,2.2-2.2h29.044a2.3,2.3,0,0,1,1.557.372l.279.279.093.093a1.833,1.833,0,0,1,.453,2.011,1.853,1.853,0,0,1-.825,1.2l-26.394,36.2h25.1a2.2,2.2,0,0,1,0,4.393H373.969a2.134,2.134,0,0,1-2.011-1.278.091.091,0,0,0-.093-.093,2.5,2.5,0,0,1-.093-.825v-.093a1.964,1.964,0,0,1,.732-1.557l26.487-36.284H373.981Zm47.744-2.661a2.125,2.125,0,0,1,2.1-2.1,2.179,2.179,0,0,1,2.29,2.1V45.721a13.752,13.752,0,0,0,13.749,13.842A13.893,13.893,0,0,0,453.79,45.721V21.35a1.594,1.594,0,0,1,.372-1.1c0-.093.093-.186.093-.279.093,0,.093-.093.186-.093a1.62,1.62,0,0,1,.825-.546h.186c.093,0,.186-.093.279-.093h.558a6.32,6.32,0,0,1,1.1.453,2.157,2.157,0,0,1,.546.732,1.754,1.754,0,0,1,.279.918V60.551a21.146,21.146,0,0,1-21.35,21.082,22.478,22.478,0,0,1-9.251-2.1A2.268,2.268,0,0,1,426.7,76.6a2.368,2.368,0,0,1,2.836-1.1,16.541,16.541,0,0,0,7.334,1.743,16.866,16.866,0,0,0,16.957-16.678V57.645A18.592,18.592,0,0,1,439.9,64.061a18.349,18.349,0,0,1-18.142-18.328V21.35ZM479.37,42.432V21.443a2.225,2.225,0,0,1,2.2-2.2,2.253,2.253,0,0,1,2.289,2.2v6.508a21.261,21.261,0,0,1,17.05-8.7,21.943,21.943,0,0,1,21.721,22.268c0,12.192-9.623,22.361-21.721,22.361a21.123,21.123,0,0,1-17.05-8.8V80.739a2.244,2.244,0,0,1-4.486,0Zm4.486-.918c0,9.9,7.787,17.875,17.05,17.956a17.666,17.666,0,0,0,17.224-17.956,17.447,17.447,0,0,0-17.224-17.782c-9.077,0-16.678,7.519-17.05,17.05Zm88.979-4.579c0-7.88-6.415-13.191-14.3-13.191-7.787,0-14.2,5.311-14.2,13.191v25.29c0,.186-.093.279-.093.372-.093.186-.093.279-.186.372a2.133,2.133,0,0,1-1.371,1.1.325.325,0,0,1-.186.093h-.465a2.546,2.546,0,0,1-1.743-.732,2.727,2.727,0,0,1-.372-.732,1.989,1.989,0,0,1-.093-.732V2.2a2.225,2.225,0,0,1,2.2-2.2,2.254,2.254,0,0,1,2.289,2.2V25.836a18.55,18.55,0,0,1,14.2-6.6c10.355,0,18.781,7.334,18.781,17.689V61.946a2.244,2.244,0,0,1-4.486,0V36.935Zm19.978,4.846c0-12.459,9.716-22.547,21.814-22.547,11.541,0,20.711,9.158,21.629,20.9V40.5a2.071,2.071,0,0,1-2.2,2.011H597.217c.453,9.809,8.159,17.224,17.41,17.224a16.869,16.869,0,0,0,14.481-8.159,2.132,2.132,0,0,1,2.929-.732,2.335,2.335,0,0,1,.732,3.115,21.4,21.4,0,0,1-18.142,10.169C602.517,64.142,592.813,54.066,592.813,41.781Zm4.672-3.568h33.995a17.34,17.34,0,0,0-16.864-14.574A17.538,17.538,0,0,0,597.485,38.213ZM649.9,21.536a2.2,2.2,0,0,1,2.29-2.2,2.147,2.147,0,0,1,2.1,2.2v9.9a7.71,7.71,0,0,1,.639-1.1c3.394-5.311,9.344-10.994,17.956-10.994a2.166,2.166,0,0,1,2.2,2.2,2.225,2.225,0,0,1-2.2,2.2c-5.869,0-9.9,3.3-13.017,7.334a40.316,40.316,0,0,0-5.4,10.448,1.372,1.372,0,0,0-.186.732v19.7a2.154,2.154,0,0,1-2.1,2.2,2.2,2.2,0,0,1-2.29-2.2V21.536ZM266,6.195a2.992,2.992,0,0,1,5.544-1.569l43.211,70.558a2.992,2.992,0,1,1-5.1,3.126L266.442,7.752A2.964,2.964,0,0,1,266,6.195Z" transform="translate(-235.085)"/>
  <g id="Group_33" data-name="Group 33" transform="translate(89.688 2.813)">
    <path id="Path_57" data-name="Path 57" class="cls-1" d="M784.972,62.855a12.3,12.3,0,0,1-3.475-3.673,11.909,11.909,0,0,1-1.174-5.462V35.392a6.835,6.835,0,0,0-1.685-4.777,6.3,6.3,0,0,0-4.184-2.115,3.82,3.82,0,0,1-2.092-.616,2.135,2.135,0,0,1,0-3.091A2.831,2.831,0,0,1,774.3,24.2a9.421,9.421,0,0,1,6.741,2.557,11.5,11.5,0,0,1,3.626,8.577V53.708a6.869,6.869,0,0,0,1.685,4.719,6.11,6.11,0,0,0,4.289,2.115,3.32,3.32,0,0,1,1.987.709,2.149,2.149,0,0,1,.558,1.581,2.072,2.072,0,0,1-.558,1.534,3.246,3.246,0,0,1-1.987.709,6.1,6.1,0,0,0-4.312,2.115,6.965,6.965,0,0,0-1.662,4.719V90.283a11.061,11.061,0,0,1-3.068,7.984,9.817,9.817,0,0,1-7.345,3.184,2.681,2.681,0,0,1-1.883-.616,2.108,2.108,0,0,1,0-3.068,3.394,3.394,0,0,1,2.092-.662,6.257,6.257,0,0,0,4.207-2.138,6.862,6.862,0,0,0,1.662-4.7V71.943a11.231,11.231,0,0,1,1.023-5.183A11.826,11.826,0,0,1,784.972,62.855Z" transform="translate(-771.7 -24.2)"/>
  </g>
  <g id="Group_34" data-name="Group 34" transform="translate(0 2.836)">
    <path id="Path_58" data-name="Path 58" class="cls-1" d="M8.217,63.032A12.3,12.3,0,0,1,11.692,66.7a11.911,11.911,0,0,1,1.174,5.462V90.495a6.835,6.835,0,0,0,1.685,4.777,6.3,6.3,0,0,0,4.184,2.115A3.82,3.82,0,0,1,20.827,98a2.135,2.135,0,0,1,0,3.091,2.83,2.83,0,0,1-1.941.593,9.422,9.422,0,0,1-6.741-2.557,11.5,11.5,0,0,1-3.626-8.577V72.167a6.868,6.868,0,0,0-1.685-4.719,6.11,6.11,0,0,0-4.289-2.115,3.321,3.321,0,0,1-1.987-.709A2.15,2.15,0,0,1,0,63.043a2.073,2.073,0,0,1,.558-1.534A3.247,3.247,0,0,1,2.545,60.8a6.1,6.1,0,0,0,4.312-2.115,6.964,6.964,0,0,0,1.662-4.719v-18.4a11.061,11.061,0,0,1,3.068-7.984A9.817,9.817,0,0,1,18.932,24.4a2.681,2.681,0,0,1,1.883.616,2.108,2.108,0,0,1,0,3.068,3.394,3.394,0,0,1-2.092.662,6.257,6.257,0,0,0-4.207,2.138,6.862,6.862,0,0,0-1.662,4.7V53.955a11.233,11.233,0,0,1-1.023,5.183,12.044,12.044,0,0,1-3.614,3.893Z" transform="translate(0 -24.4)"/>
  </g>
</svg>
