<svg xmlns="http://www.w3.org/2000/svg" width="1378.2" height="279"><style>.st0{fill:#43434f}.st1{fill:#2dd3ff}.st2{fill:#ff3b61}</style><path class="st0" d="M594.8 211.1c1.2 1.2 1.8 2.4 1.8 3.8 0 1.6-.6 2.9-1.8 3.9-1.2 1.1-2.5 1.6-4.1 1.6H446.8c-1.8 0-3.2-.6-4.2-1.9-1.1-1.3-1.6-2.7-1.6-4.2 0-1.4.4-2.5 1.2-3.5l138-183.9H452.7c-1.6 0-2.9-.5-4.1-1.6-1.2-1.1-1.8-2.4-1.8-3.9 0-1.6.6-2.9 1.8-3.9 1.2-1.1 2.5-1.6 4.1-1.6h137.5c2.3 0 4 .6 5.1 1.8 1.1 1.2 1.6 2.5 1.6 4.1 0 1.4-.4 2.5-1.2 3.5L457.9 209.4h132.8c1.6 0 2.9.6 4.1 1.7zM749.9 71.6c1.1 1.2 1.6 2.5 1.6 4.1v130.4c0 14.6-3 27.4-8.9 38.5-6 11-14.1 19.5-24.6 25.4-10.4 5.9-22.3 8.9-35.5 8.9-8.6 0-16.4-1-23.5-3.1-7.1-2-13.1-4.7-18-8-3.5-2.3-4.6-5-3.2-7.9 1.4-2.3 3-3.5 5-3.5 1 0 1.9.3 2.6.9 4.7 2.9 10.3 5.5 16.8 7.8 6.5 2.2 13.5 3.4 20.9 3.4 11.1 0 21-2.6 29.5-7.9 8.6-5.3 15.3-12.6 20-22.1 4.8-9.5 7.2-20.2 7.2-32.3V193c-4.5 8.8-11.7 16-21.5 21.8-9.8 5.7-20 8.6-30.6 8.6-17.5 0-30.6-5-39.2-15.1-8.6-10-12.9-23.8-12.9-41.4V75.7c0-1.6.5-2.9 1.6-4.1 1.1-1.2 2.5-1.8 4.2-1.8s3.2.6 4.2 1.8c1.1 1.2 1.6 2.5 1.6 4.1V167c0 30.2 13.5 45.3 40.4 45.3 8.4 0 16.6-2.2 24.7-6.6 8.1-4.4 14.7-10.1 19.7-17.1 5.1-7 7.6-14.2 7.6-21.6V75.7c0-1.6.5-2.9 1.6-4.1 1.1-1.2 2.5-1.8 4.2-1.8s3.5.7 4.5 1.8zM902.7 82.5c10.3 6.4 18.4 15.3 24.3 26.6 5.8 11.3 8.8 24.1 8.8 38.3 0 14-3 26.8-8.9 38.2-5.9 11.4-14.1 20.4-24.4 26.9-10.3 6.5-21.8 9.8-34.5 9.8-11.7 0-22.4-2.9-32.2-8.8-9.8-5.8-17.7-14.1-24-24.9v84.5c0 1.6-.5 2.9-1.6 4.1-1.1 1.2-2.5 1.8-4.2 1.8-1.6 0-2.9-.6-4.1-1.8s-1.8-2.5-1.8-4.1V78.7c0-1.6.5-2.9 1.6-4.1 1.1-1.2 2.5-1.8 4.2-1.8s3.2.6 4.2 1.8c1.1 1.2 1.6 2.5 1.6 4.1v26.9c5.8-11.1 13.6-19.3 23.4-24.7 9.7-5.4 20.7-8 32.8-8 12.9-.1 24.5 3.1 34.8 9.6zm-6.4 120.4c8.6-5.5 15.4-13.1 20.3-22.8 5-9.7 7.5-20.7 7.5-32.8 0-12.1-2.5-23-7.5-32.6-5-9.7-11.7-17.2-20.3-22.7-8.6-5.5-18.2-8.2-29-8.2-10.9 0-20.7 2.7-29.4 8-8.7 5.4-15.4 12.9-20.2 22.5-4.8 9.7-7.2 20.6-7.2 32.9 0 12.3 2.4 23.2 7.2 32.9 4.8 9.7 11.5 17.2 20.2 22.7s18.5 8.2 29.4 8.2c10.8.1 20.4-2.6 29-8.1zM1076.4 88.7c9 10.6 13.5 24.1 13.5 40.5v85.4c0 1.6-.6 2.9-1.8 4.1-1.2 1.2-2.5 1.8-4.1 1.8-1.8 0-3.2-.6-4.2-1.8-1.1-1.2-1.6-2.5-1.6-4.1v-85.4c0-13.5-3.3-24.4-9.9-32.8-6.6-8.4-16.8-12.6-30.4-12.6-8.4 0-16.6 2-24.7 6.1-8.1 4.1-14.7 9.7-19.7 16.7-5.1 7-7.6 14.5-7.6 22.5v85.4c0 1.6-.6 2.9-1.8 4.1s-2.5 1.8-4.1 1.8c-1.8 0-3.2-.6-4.2-1.8-1.1-1.2-1.6-2.5-1.6-4.1V9.9c0-1.6.6-2.9 1.8-4.1s2.5-1.8 4.1-1.8c1.8 0 3.2.6 4.2 1.8 1.1 1.2 1.6 2.5 1.6 4.1v92.4c5.5-8.6 13-15.6 22.7-21.2s19.4-8.3 29.4-8.3c16.6 0 29.5 5.3 38.4 15.9zM1257.5 187c1 1.1 1.5 2.3 1.5 3.7 0 1.4-.4 2.5-1.2 3.5-6.4 8.6-14.4 15.6-24 21.1-9.6 5.5-19.8 8.2-30.7 8.2-14.6 0-27.6-3.1-38.9-9.4-11.3-6.2-20.1-15.1-26.5-26.6-6.3-11.5-9.5-24.9-9.5-40.1 0-15.6 3.1-29.3 9.2-41.1s14.3-20.8 24.4-27.1c10.1-6.2 21-9.4 32.5-9.4s22.2 2.5 32 7.5 17.9 12.4 24.1 22.4c6.2 9.9 9.6 22.2 9.9 36.8 0 1.6-.6 3-1.8 4.2-1.2 1.3-2.5 1.9-4.1 1.9h-114.9v3.8c0 12.1 2.4 23.2 7.3 33.2 4.9 10 12.1 18 21.6 23.8 9.6 5.8 21.1 8.8 34.5 8.8 9.4 0 18.2-2.3 26.5-6.9 8.3-4.6 14.8-10.4 19.4-17.4 1.4-1.8 3-2.6 5-2.6 1.5.1 2.7.6 3.7 1.7zm-85.3-99.7c-7.5 3.8-14.1 9.5-19.9 17-5.8 7.5-9.6 16.6-11.6 27.3h107.6V129c-1-9.9-4.1-18.5-9.5-25.6-5.4-7.1-12-12.5-19.9-16.2-7.9-3.7-16.1-5.6-24.7-5.6-7.1 0-14.5 1.9-22 5.7zM1378.2 76.6c0 1.8-.5 3.2-1.5 4.4-1 1.2-2.2 1.8-3.8 1.8-.6 0-2-.4-4.2-1.3s-4.6-1.3-7.2-1.3c-8 0-16 3.2-24 9.5s-14.5 14.3-19.6 24c-5.1 9.7-7.6 19-7.6 27.9v73.1c0 1.6-.6 2.9-1.8 4.1s-2.5 1.8-4.1 1.8c-1.8 0-3.2-.6-4.2-1.8-1.1-1.2-1.6-2.5-1.6-4.1V80.4c0-1.6.6-2.9 1.8-4.1s2.5-1.8 4.1-1.8c1.8 0 3.2.6 4.2 1.8 1.1 1.2 1.6 2.5 1.6 4.1v31c4.5-11.9 11.5-21.7 20.9-29.5 9.5-7.8 20.6-11.8 33.5-12 9.1 0 13.5 2.2 13.5 6.7z"/><g><path class="st0" d="M102.4 14.5c0-3.2 1.6-6.3 4.6-8.1 4.5-2.8 10.4-1.3 13.1 3.2L258 234.7c2.8 4.5 1.3 10.4-3.2 13.1-4.5 2.8-10.4 1.3-13.1-3.2L103.8 19.4c-.9-1.5-1.4-3.2-1.4-4.9z"/><path class="st0" d="M249.9 251.7c-.9 0-1.9-.1-2.8-.3-3.1-.8-5.8-2.7-7.5-5.4L101.7 20.8c-1.2-1.9-1.8-4.1-1.8-6.3 0-4.2 2.2-8.1 5.8-10.3 2.7-1.7 6-2.2 9.1-1.4 3.1.8 5.8 2.7 7.5 5.4l137.9 225.2c3.5 5.7 1.7 13.1-4 16.6-2 1.1-4.1 1.7-6.3 1.7zM111.9 7.4c-1.3 0-2.5.4-3.7 1-2.1 1.3-3.4 3.5-3.4 6 0 1.3.4 2.6 1 3.7l137.9 225.2c1 1.6 2.5 2.7 4.4 3.2 1.8.4 3.7.1 5.3-.8 3.3-2 4.4-6.4 2.3-9.7L118 10.8c-1-1.6-2.5-2.7-4.4-3.2-.5-.1-1.1-.2-1.7-.2z"/><path class="st1" d="M332.3 127.1c-5.4-4.1-9.1-8-11.1-11.7-2.5-4.9-3.7-10.7-3.7-17.4V39.4c0-6.2-1.8-11.3-5.4-15.2-3.6-4-8-6.2-13.4-6.8-3.4-.3-5.6-1-6.7-2-1.4-1.3-2.1-2.9-2.1-4.9 0-2.1.7-3.7 2.1-5 1.4-1.2 3.5-1.9 6.2-1.9 8.6 0 15.7 2.7 21.5 8.1 7.7 7.5 11.6 16.6 11.6 27.4v58.6c0 6 1.8 11 5.4 15.1 3.6 4.1 8.1 6.3 13.7 6.8 3 .3 5.2 1.1 6.4 2.3 1.2 1.2 1.8 2.9 1.8 5s-.6 3.7-1.8 4.9c-1.2 1.2-3.3 2-6.4 2.3-5.6.4-10.2 2.7-13.8 6.8-3.5 4.1-5.3 9.1-5.3 15.1v58.6c0 10.2-3.3 18.7-9.8 25.5-6.5 6.8-14.3 10.2-23.5 10.2-2.6 0-4.6-.7-6-2-1.4-1.3-2.1-2.9-2.1-4.9 0-2 .7-3.6 2.1-4.9 1-1.1 3.2-1.8 6.7-2.1 5.4-.5 9.9-2.8 13.4-6.8s5.3-9 5.3-15V156c0-6.8 1.1-12.4 3.3-16.5 2.2-4.2 6.1-8.3 11.6-12.4z"/><path class="st1" d="M298.1 254.1c-3.6 0-6.4-1-8.6-2.9-2.2-2-3.3-4.7-3.3-7.6 0-2.9 1.1-5.5 3.2-7.5 1.7-1.8 4.6-2.8 9-3.2 4.5-.4 8.1-2.3 11-5.6 2.9-3.3 4.4-7.4 4.4-12.5V156c0-7.4 1.2-13.6 3.7-18.3 1.9-3.6 4.9-7.2 8.9-10.7-3.9-3.4-6.7-6.7-8.4-10-2.8-5.4-4.2-11.9-4.2-19.2V39.4c0-5.3-1.4-9.4-4.4-12.7-3-3.3-6.5-5.1-11-5.5-4.3-.4-7.1-1.3-8.8-2.9-2.2-2-3.4-4.7-3.4-7.7 0-3.1 1.2-5.8 3.4-7.8 2.1-1.9 5-2.8 8.7-2.8 9.5 0 17.6 3.1 24.1 9.2 8.5 8.2 12.7 18.3 12.7 30.1v58.6c0 5.1 1.5 9.2 4.4 12.6 2.9 3.3 6.6 5.1 11.2 5.5h.1c4 .4 6.8 1.5 8.6 3.4 1.9 1.9 2.9 4.5 2.9 7.7 0 3.1-1 5.6-2.9 7.5-1.8 1.8-4.6 2.9-8.6 3.4h-.1c-4.7.4-8.3 2.1-11.2 5.5-2.9 3.4-4.4 7.5-4.4 12.6v58.6c0 11.2-3.6 20.6-10.8 28.1-7.2 7.5-16 11.3-26.2 11.3zm-3.3-12.9l-.2.2c-.6.6-.9 1.2-.9 2.1 0 .9.3 1.5.9 2.1.7.6 1.9 1 3.5 1 8.1 0 14.9-3 20.7-9 5.9-6.1 8.7-13.6 8.7-22.9V156c0-6.9 2.1-12.8 6.2-17.5 4.2-4.8 9.6-7.5 16.3-8 3-.3 3.9-1.1 4-1.2.3-.3.7-.9.7-2.2 0-1.1-.2-1.9-.7-2.4-.1-.1-1-.9-4.1-1.2-6.5-.5-11.9-3.2-16.1-8-4.2-4.8-6.3-10.7-6.3-17.5V39.3c0-9.8-3.4-17.9-10.4-24.7-5-4.8-11.2-7.1-18.9-7.1-1.7 0-3 .3-3.7.9-.4.4-.9.9-.9 2.2 0 .9.3 1.5.9 2.1 0 0 .9.6 4.5 1 6.3.6 11.6 3.3 15.8 8 4.2 4.7 6.3 10.6 6.3 17.7v58.5c0 6.1 1.1 11.4 3.3 15.7 1.7 3.1 5 6.7 10 10.4l4 3-4 3c-5.1 3.8-8.6 7.5-10.5 11.2-1.9 3.6-2.8 8.6-2.8 14.8v58.6c0 6.9-2.1 12.8-6.2 17.5-4.2 4.7-9.5 7.5-15.9 8.1-3 .3-4 .9-4.2 1z"/><g><path class="st2" d="M30 127.1c5.4 4.1 9.1 8 11.1 11.7 2.5 4.9 3.7 10.7 3.7 17.4v58.5c0 6.2 1.8 11.3 5.4 15.2 3.6 4 8 6.2 13.4 6.8 3.4.3 5.6 1 6.7 2 1.4 1.3 2.1 2.9 2.1 4.9 0 2.1-.7 3.7-2.1 5-1.4 1.2-3.5 1.9-6.2 1.9-8.6 0-15.7-2.7-21.5-8.1C34.9 234.9 31 225.8 31 215v-58.6c0-6-1.8-11-5.4-15.1-3.6-4.1-8.1-6.3-13.7-6.8-3-.3-5.2-1.1-6.4-2.3-1.2-1.2-1.8-2.9-1.8-5s.6-3.7 1.8-4.9c1.2-1.2 3.3-2 6.4-2.3 5.6-.4 10.2-2.7 13.8-6.8 3.5-4.1 5.3-9.1 5.3-15.1V39.4c0-10.2 3.3-18.7 9.8-25.5C47.2 7.1 55.1 3.8 64.2 3.8c2.6 0 4.6.7 6 2 1.4 1.3 2.1 2.9 2.1 4.9 0 2-.7 3.6-2.1 4.9-1 1.1-3.2 1.8-6.7 2.1-5.4.5-9.9 2.8-13.4 6.8s-5.3 9-5.3 15v58.6c0 6.8-1.1 12.4-3.3 16.5-2.1 4.2-6 8.3-11.5 12.5z"/><path class="st2" d="M64 254.1c-9.5 0-17.6-3.1-24.1-9.2-8.5-8.2-12.7-18.3-12.7-30.1v-58.6c0-5.1-1.5-9.2-4.4-12.6-2.9-3.3-6.6-5.1-11.2-5.5h-.1c-4-.4-6.8-1.5-8.6-3.4-1.9-1.9-2.9-4.5-2.9-7.6 0-3.1 1-5.6 2.9-7.5 1.8-1.8 4.6-2.9 8.6-3.4h.1c4.7-.4 8.3-2.1 11.2-5.5 2.9-3.4 4.4-7.5 4.4-12.6V39.4c0-11.2 3.6-20.6 10.8-28.1C45.2 3.8 54 0 64.2 0c3.6 0 6.4 1 8.6 2.9 2.2 2 3.3 4.7 3.3 7.6 0 2.9-1.1 5.5-3.2 7.5-1.7 1.8-4.6 2.8-9 3.2-4.5.4-8.1 2.3-11 5.6-2.9 3.3-4.4 7.4-4.4 12.5v58.6c0 7.4-1.2 13.6-3.7 18.3-1.9 3.6-4.9 7.2-8.9 10.7 3.9 3.4 6.7 6.7 8.4 10 2.8 5.4 4.2 11.9 4.2 19.2v58.5c0 5.3 1.4 9.4 4.4 12.7 3 3.3 6.5 5.1 11 5.5 4.3.4 7.1 1.3 8.8 2.9 2.2 2 3.4 4.7 3.4 7.7 0 3.1-1.2 5.8-3.4 7.8-2.1 2-5 2.9-8.7 2.9zM12.2 130.6c6.5.5 11.9 3.2 16.1 8 4.2 4.8 6.3 10.7 6.3 17.5v58.6c0 9.8 3.4 17.9 10.4 24.7 5 4.8 11.2 7.1 18.9 7.1 1.7 0 3-.3 3.7-.9.4-.4.8-.9.8-2.2 0-.9-.3-1.5-.9-2.1 0 0-.9-.6-4.5-1-6.3-.6-11.6-3.3-15.8-8-4.2-4.7-6.3-10.6-6.3-17.7v-58.5c0-6.1-1.1-11.4-3.3-15.7-1.7-3.1-5-6.7-10-10.4l-4-3 4-3c5.1-3.8 8.6-7.5 10.5-11.2 1.9-3.6 2.8-8.6 2.8-14.8V39.4c0-6.9 2.1-12.8 6.2-17.5 4.2-4.7 9.5-7.5 15.9-8.1 3.2-.3 4.2-.8 4.3-1l.2-.2c.6-.6.9-1.2.9-2.1 0-.9-.3-1.5-.9-2.1-.7-.6-1.9-1-3.5-1-8.1 0-14.9 3-20.7 9-5.9 6.1-8.7 13.6-8.7 22.9v58.6c0 6.9-2.1 12.8-6.2 17.5-4.2 4.8-9.6 7.5-16.3 8-3 .3-3.9 1.1-4 1.2-.3.3-.7.9-.7 2.2 0 1.1.2 1.9.7 2.4.2.4 1.1 1.1 4.1 1.4zM67.4 13z"/></g></g></svg>