<svg id="logo" xmlns="http://www.w3.org/2000/svg" viewBox="0 0 106.107 20">
  <defs>
    <style>
      .cls-1 {
        fill: #101010;
      }

      .cls-2 {
        fill: #ff3b3b;
      }

      .cls-3 {
        fill: #00a2ff;
      }
    </style>
  </defs>
  <path id="Path_56" data-name="Path 56" class="cls-1" d="M292.04,5.79a.537.537,0,0,1-.53-.53.524.524,0,0,1,.53-.53h7a.555.555,0,0,1,.376.09l.067.067.022.022a.442.442,0,0,1,.109.485.447.447,0,0,1-.2.289l-6.365,8.73h6.054a.53.53,0,1,1,0,1.059h-7.071a.515.515,0,0,1-.485-.308.022.022,0,0,0-.022-.022.6.6,0,0,1-.022-.2v-.022a.474.474,0,0,1,.177-.376l6.387-8.75H292.04Zm11.513-.642a.513.513,0,0,1,.507-.507.525.525,0,0,1,.552.507v5.877a3.316,3.316,0,0,0,3.316,3.338,3.35,3.35,0,0,0,3.358-3.338V5.149a.384.384,0,0,1,.09-.266c0-.022.022-.045.022-.067.022,0,.022-.022.045-.022a.39.39,0,0,1,.2-.132h.045c.022,0,.045-.022.067-.022h.135a1.524,1.524,0,0,1,.266.109.52.52,0,0,1,.132.177.423.423,0,0,1,.067.221V14.6a5.1,5.1,0,0,1-5.149,5.084,5.421,5.421,0,0,1-2.231-.507.547.547,0,0,1-.221-.706.571.571,0,0,1,.684-.266,3.989,3.989,0,0,0,1.769.42,4.067,4.067,0,0,0,4.089-4.022v-.7a4.483,4.483,0,0,1-3.358,1.547,4.425,4.425,0,0,1-4.375-4.42V5.149Zm13.9,5.084V5.171a.537.537,0,0,1,.53-.53.543.543,0,0,1,.552.53V6.74a5.127,5.127,0,0,1,4.112-2.1,5.292,5.292,0,0,1,5.238,5.37,5.325,5.325,0,0,1-5.238,5.392,5.094,5.094,0,0,1-4.112-2.122V19.47a.541.541,0,0,1-1.082,0Zm1.082-.221a4.137,4.137,0,1,0,8.265,0,4.134,4.134,0,1,0-8.265-.177Zm21.457-1.1a3.446,3.446,0,0,0-6.872,0v6.1c0,.045-.022.067-.022.09-.022.045-.022.067-.045.09a.514.514,0,0,1-.331.266.078.078,0,0,1-.045.022h-.112a.614.614,0,0,1-.42-.177.658.658,0,0,1-.09-.177.48.48,0,0,1-.022-.177V.53a.537.537,0,0,1,.53-.53.543.543,0,0,1,.552.53v5.7a4.473,4.473,0,0,1,3.425-1.592A4.317,4.317,0,0,1,341.07,8.9v6.034a.541.541,0,0,1-1.082,0V8.907Zm4.818,1.169a5.242,5.242,0,0,1,10.476-.4v.09a.5.5,0,0,1-.53.485h-8.885a4.257,4.257,0,0,0,4.2,4.154,4.068,4.068,0,0,0,3.492-1.967.514.514,0,0,1,.706-.177.563.563,0,0,1,.177.751,5.162,5.162,0,0,1-4.375,2.452A5.324,5.324,0,0,1,344.812,10.076Zm1.127-.86h8.2A4.182,4.182,0,0,0,350.07,5.7,4.229,4.229,0,0,0,345.938,9.215Zm12.64-4.022a.529.529,0,0,1,.552-.53.518.518,0,0,1,.507.53V7.581a1.86,1.86,0,0,1,.154-.266,5.225,5.225,0,0,1,4.33-2.651.522.522,0,0,1,.53.53.537.537,0,0,1-.53.53,3.906,3.906,0,0,0-3.139,1.768,9.723,9.723,0,0,0-1.3,2.52.331.331,0,0,0-.045.177v4.751a.519.519,0,0,1-.507.53.529.529,0,0,1-.552-.53V5.193ZM266,1.494a.722.722,0,0,1,1.337-.378l10.42,17.015a.721.721,0,1,1-1.23.754L266.107,1.869A.715.715,0,0,1,266,1.494Z" transform="translate(-258.545)"/>
  <g id="Group_33" data-name="Group 33" transform="translate(21.628 0.678)">
    <path id="Path_57" data-name="Path 57" class="cls-2" d="M774.9,33.522a2.967,2.967,0,0,1-.838-.886,2.873,2.873,0,0,1-.283-1.317V26.9a1.648,1.648,0,0,0-.406-1.152,1.52,1.52,0,0,0-1.009-.51.921.921,0,0,1-.5-.149.515.515,0,0,1,0-.746.683.683,0,0,1,.468-.143,2.272,2.272,0,0,1,1.626.617,2.774,2.774,0,0,1,.874,2.068v4.431a1.657,1.657,0,0,0,.406,1.138,1.473,1.473,0,0,0,1.034.51.8.8,0,0,1,.479.171.519.519,0,0,1,.134.381.5.5,0,0,1-.134.37.783.783,0,0,1-.479.171,1.47,1.47,0,0,0-1.04.51,1.68,1.68,0,0,0-.4,1.138v4.431a2.667,2.667,0,0,1-.74,1.925,2.367,2.367,0,0,1-1.771.768.647.647,0,0,1-.454-.149.508.508,0,0,1,0-.74.818.818,0,0,1,.5-.16,1.509,1.509,0,0,0,1.015-.516,1.655,1.655,0,0,0,.4-1.132v-4.42a2.708,2.708,0,0,1,.247-1.25A2.852,2.852,0,0,1,774.9,33.522Z" transform="translate(-771.7 -24.2)"/>
  </g>
  <g id="Group_34" data-name="Group 34" transform="translate(0 0.684)">
    <path id="Path_58" data-name="Path 58" class="cls-3" d="M1.982,33.716a2.967,2.967,0,0,1,.838.886A2.872,2.872,0,0,1,3.1,35.919v4.42a1.648,1.648,0,0,0,.406,1.152A1.52,1.52,0,0,0,4.518,42a.921.921,0,0,1,.5.149.515.515,0,0,1,0,.746.683.683,0,0,1-.468.143,2.272,2.272,0,0,1-1.626-.617,2.774,2.774,0,0,1-.874-2.068V35.919a1.656,1.656,0,0,0-.406-1.138,1.473,1.473,0,0,0-1.034-.51A.8.8,0,0,1,.135,34.1.518.518,0,0,1,0,33.719a.5.5,0,0,1,.135-.37.783.783,0,0,1,.479-.171,1.47,1.47,0,0,0,1.04-.51,1.679,1.679,0,0,0,.4-1.138V27.093a2.667,2.667,0,0,1,.74-1.925A2.367,2.367,0,0,1,4.566,24.4a.646.646,0,0,1,.454.149.508.508,0,0,1,0,.74.818.818,0,0,1-.5.16,1.509,1.509,0,0,0-1.015.516A1.655,1.655,0,0,0,3.1,27.1v4.431a2.709,2.709,0,0,1-.247,1.25,2.9,2.9,0,0,1-.872.939Z" transform="translate(0 -24.4)"/>
  </g>
</svg>
