<svg xmlns="http://www.w3.org/2000/svg" viewBox="0 0 40 39.983"><defs><style>.a{fill:#08f;}</style></defs><g transform="translate(-1 -0.106)"><g transform="translate(1 0.106)"><g transform="translate(0 0)"><path class="a" d="M126.831,324.373a.666.666,0,0,0-.666.666v11.355a1.308,1.308,0,0,1-1.306,1.306H106.146a1.308,1.308,0,0,1-1.306-1.306V325.039a.666.666,0,0,0-1.333,0v11.355a2.642,2.642,0,0,0,2.639,2.639h18.712a2.642,2.642,0,0,0,2.639-2.639V325.039A.666.666,0,0,0,126.831,324.373Z" transform="translate(-95.502 -299.05)"/><path class="a" d="M104.172,14.767a.666.666,0,0,0,.666-.666V2.744a1.307,1.307,0,0,1,1.306-1.305h18.712a1.307,1.307,0,0,1,1.306,1.305V14.1a.666.666,0,0,0,1.333,0V2.744A2.641,2.641,0,0,0,124.857.106H106.145a2.642,2.642,0,0,0-2.639,2.638V14.1A.666.666,0,0,0,104.172,14.767Z" transform="translate(-95.501 -0.106)"/><path class="a" d="M178.437,68.373a6.664,6.664,0,1,0,6.664,6.664A6.664,6.664,0,0,0,178.437,68.373Zm0,12a5.331,5.331,0,1,1,5.331-5.331A5.331,5.331,0,0,1,178.437,80.368Z" transform="translate(-158.437 -63.042)"/><path class="a" d="M249.239,290.239a.666.666,0,0,0-.666.666v2.666a.666.666,0,0,0,1.333,0v-2.666A.666.666,0,0,0,249.239,290.239Z" transform="translate(-229.239 -267.582)"/><path class="a" d="M192.172,384.106h-2.666a.666.666,0,1,0,0,1.333h2.666a.666.666,0,1,0,0-1.333Z" transform="translate(-174.171 -354.118)"/><path class="a" d="M277.5,384.106h-2.666a.666.666,0,1,0,0,1.333H277.5a.666.666,0,0,0,0-1.333Z" transform="translate(-252.84 -354.118)"/><path class="a" d="M212.57,106.505a2.666,2.666,0,1,1-2.666-2.666.666.666,0,0,0,0-1.333,4,4,0,1,0,4,4,.666.666,0,0,0-1.333,0Z" transform="translate(-189.904 -94.51)"/><path class="a" d="M38.993,58.229a1.982,1.982,0,0,0-.857.2l-4-4a.666.666,0,0,0-.471-.195H30.329v-2h6.786a2,2,0,1,0,0-1.333H30.329v-2h3.332a.666.666,0,0,0,.471-.2l4-4a1.976,1.976,0,0,0,.856.2,2,2,0,1,0-2-2,1.969,1.969,0,0,0,.2.856l-3.808,3.808H30.329V36.052a1.815,1.815,0,0,0-1.813-1.813H13.483a1.815,1.815,0,0,0-1.813,1.813V47.567H8.615L4.807,43.758a1.969,1.969,0,0,0,.2-.856,2,2,0,1,0-2,2,1.976,1.976,0,0,0,.856-.2l4,4a.666.666,0,0,0,.471.195h3.332v2H4.884a2,2,0,1,0,0,1.333h6.786v2H8.339a.666.666,0,0,0-.471.195l-4,4a1.995,1.995,0,1,0,1.142,1.8,1.979,1.979,0,0,0-.2-.857l3.808-3.808h3.056V67.079a1.815,1.815,0,0,0,1.813,1.813H28.517a1.815,1.815,0,0,0,1.813-1.813V55.564h3.056l3.808,3.808a1.995,1.995,0,1,0,1.8-1.142Zm0-7.33a.666.666,0,1,1-.666.666A.666.666,0,0,1,38.993,50.9Zm-.607-8.255a.661.661,0,1,1,.141.734v-.009l-.007-.005A.667.667,0,0,1,38.386,42.644Zm-34.9.725H3.474l0,.007a.5.5,0,1,1,.014-.007Zm-.476,8.863a.666.666,0,1,1,.666-.666A.666.666,0,0,1,3.007,52.232Zm.608,8.255a.662.662,0,1,1-.141-.735v.01l.008.005A.667.667,0,0,1,3.615,60.487ZM29,67.079a.481.481,0,0,1-.48.48H13.483a.481.481,0,0,1-.48-.48V36.052a.481.481,0,0,1,.48-.48H28.517a.481.481,0,0,1,.48.48Zm10.17-6.208a.666.666,0,0,1-.651-1.109h.01l.005-.008a.664.664,0,1,1,.636,1.117Z" transform="translate(-1 -31.573)"/></g></g></g></svg>