<svg xmlns="http://www.w3.org/2000/svg" viewBox="0 0 50 45.833">
  <defs>
    <style>
      .cls-1 {
        fill: #00d664;
      }
    </style>
  </defs>
  <g id="_993791" data-name="993791" transform="translate(-48)">
    <g id="Group_146" data-name="Group 146" transform="translate(48)">
      <g id="Group_145" data-name="Group 145">
        <path id="Path_123" data-name="Path 123" class="cls-1" d="M92.792,0H53.208A5.215,5.215,0,0,0,48,5.208V33.333a5.215,5.215,0,0,0,5.208,5.208H67.452L65.965,43.75H62.583v2.083H83.417V43.75H80.035l-1.488-5.208H92.792A5.215,5.215,0,0,0,98,33.333V5.208A5.215,5.215,0,0,0,92.792,0ZM68.131,43.75l1.487-5.208h6.763l1.487,5.208ZM95.917,33.333a3.125,3.125,0,0,1-3.125,3.125H53.208a3.125,3.125,0,0,1-3.125-3.125V31.25H95.917Zm0-4.167H50.083V5.208a3.125,3.125,0,0,1,3.125-3.125H92.792a3.125,3.125,0,0,1,3.125,3.125Z" transform="translate(-48)"/>
      </g>
    </g>
    <g id="Group_172" data-name="Group 172" transform="translate(69.907 9.11)">
      <g id="Group_171" data-name="Group 171" transform="translate(0)">
        <rect id="Rectangle_99" data-name="Rectangle 99" class="cls-1" width="15.16" height="2.082" transform="translate(0 14.575) rotate(-74.032)"/>
      </g>
    </g>
    <g id="Group_174" data-name="Group 174" transform="translate(59.459 10.658)">
      <g id="Group_173" data-name="Group 173">
        <path id="Path_126" data-name="Path 126" class="cls-1" d="M143.961,83.456l-1.333-1.6-6.25,5.208a1.042,1.042,0,0,0,0,1.6l6.25,5.208,1.333-1.6-5.29-4.408Z" transform="translate(-136.004 -81.856)"/>
      </g>
    </g>
    <g id="Group_176" data-name="Group 176" transform="translate(78.583 10.658)">
      <g id="Group_175" data-name="Group 175">
        <path id="Path_127" data-name="Path 127" class="cls-1" d="M290.6,87.2a1.041,1.041,0,0,0-.133-.133l-6.25-5.208-1.333,1.6,5.29,4.408-5.29,4.408,1.333,1.6,6.25-5.208A1.042,1.042,0,0,0,290.6,87.2Z" transform="translate(-282.88 -81.856)"/>
      </g>
    </g>
  </g>
</svg>
