<svg xmlns="http://www.w3.org/2000/svg" viewBox="0 0 40 48"><defs><style>.a{fill:#08f;}</style></defs><g transform="translate(-40)"><g transform="translate(40 17.6)"><path class="a" d="M72,188.8v-1.6h4.8V176h-16v11.2h4.8v1.6H59.2v-6.4H46.4v6.4H40v6.4h1.6v11.2H78.4V195.2H80v-6.4Zm-9.6-3.2v-8H75.2v8Zm8,1.6v1.6H67.2v-1.6ZM48,184h4v3.2h1.6V184h4v4.8H48Zm17.6,20.8H43.2v-9.6H65.6Zm11.2,0H67.2v-9.6h9.6Zm1.6-11.2H41.6v-3.2H78.4Z" transform="translate(-40 -176)"/></g><g transform="translate(67.2)"><path class="a" d="M318.4,0a6.4,6.4,0,1,0,6.4,6.4A6.4,6.4,0,0,0,318.4,0Zm0,11.2a4.8,4.8,0,1,1,4.8-4.8A4.8,4.8,0,0,1,318.4,11.2Z" transform="translate(-312 0)"/></g><g transform="translate(72.8 4)"><g transform="translate(0)"><path class="a" d="M369.6,41.6V40H368v3.2h3.2V41.6Z" transform="translate(-368 -40)"/></g></g><g transform="translate(47.2 8)"><g transform="translate(0)"><path class="a" d="M117.6,80a5.6,5.6,0,0,0-5.6,5.6v.8h1.6v4a4,4,0,1,0,8,0v-4h1.6v-.8A5.6,5.6,0,0,0,117.6,80ZM120,90.4a2.4,2.4,0,1,1-4.8,0v-4H120Zm-6.32-5.6a4,4,0,0,1,7.84,0Z" transform="translate(-112 -80)"/></g></g><g transform="translate(64 24)"><rect class="a" width="1.6" height="1.6"/></g><g transform="translate(52 17.6)"><rect class="a" width="1.6" height="1.6"/></g></g></svg>