<svg xmlns="http://www.w3.org/2000/svg" viewBox="0 0 40 40"><defs><style>.a{fill:#08f;}</style></defs><path class="a" d="M38.526,2.526H24V2.316A2.318,2.318,0,0,0,21.684,0H18.316A2.318,2.318,0,0,0,16,2.316v.211H1.474A1.475,1.475,0,0,0,0,4V8.211a.632.632,0,1,0,1.263,0V4a.211.211,0,0,1,.211-.211H19.158a.632.632,0,1,0,0-1.263H17.263V2.316a1.054,1.054,0,0,1,1.053-1.053h3.368a1.054,1.054,0,0,1,1.053,1.053v.211H21.684a.632.632,0,0,0,0,1.263H38.526A.211.211,0,0,1,38.737,4V22.526a.632.632,0,0,0,1.263,0V4A1.475,1.475,0,0,0,38.526,2.526Z"/><path class="a" d="M39.368,143.664a.631.631,0,0,0-.632.632v4.211a.211.211,0,0,1-.211.211H1.474a.211.211,0,0,1-.211-.211V129.98a.632.632,0,0,0-1.263,0v18.526a1.475,1.475,0,0,0,1.474,1.474h9.474v8H8.21a.632.632,0,1,0,0,1.263H31.789a.632.632,0,1,0,0-1.263H29.053v-8h9.474A1.475,1.475,0,0,0,40,148.506V144.3A.631.631,0,0,0,39.368,143.664Zm-11.579,8.421H14.105a.632.632,0,1,0,0,1.263H27.789v4.632H12.211v-8H27.79v2.105Z" transform="translate(0 -119.243)"/><path class="a" d="M44.208,109.205a1.362,1.362,0,0,0-1.093,1.333v.989a1.362,1.362,0,0,0,1.092,1.332l1.447.289a6.433,6.433,0,0,0,.288.695l-.819,1.228a1.363,1.363,0,0,0,.17,1.715l.7.7a1.363,1.363,0,0,0,1.715.17l1.228-.819a6.426,6.426,0,0,0,.695.288l.289,1.447a1.362,1.362,0,0,0,1.332,1.092h.989a1.362,1.362,0,0,0,1.333-1.092l.289-1.447a6.433,6.433,0,0,0,.695-.288l1.228.819a1.362,1.362,0,0,0,1.715-.17l.7-.7a1.363,1.363,0,0,0,.17-1.715l-.819-1.228a6.426,6.426,0,0,0,.288-.695l1.447-.289a1.362,1.362,0,0,0,1.093-1.332v-.989a1.362,1.362,0,0,0-1.092-1.332l-1.447-.289a6.426,6.426,0,0,0-.288-.695l.819-1.228a1.363,1.363,0,0,0-.17-1.715l-.7-.7a1.363,1.363,0,0,0-1.715-.17l-1.228.819a6.424,6.424,0,0,0-.695-.288l-.289-1.447a1.362,1.362,0,0,0-1.333-1.092h-.989a1.362,1.362,0,0,0-1.333,1.092l-.289,1.447a6.433,6.433,0,0,0-.695.288l-1.228-.819a1.363,1.363,0,0,0-1.715.17l-.7.7a1.363,1.363,0,0,0-.17,1.715l.819,1.228a6.419,6.419,0,0,0-.288.695Zm2.061.876a.632.632,0,0,0,.484-.449,5.155,5.155,0,0,1,.472-1.14.631.631,0,0,0-.025-.66l-1.026-1.539a.1.1,0,0,1,.012-.121l.7-.7a.1.1,0,0,1,.121-.012l1.539,1.026a.632.632,0,0,0,.66.025,5.162,5.162,0,0,1,1.14-.472.631.631,0,0,0,.449-.484l.363-1.813a.1.1,0,0,1,.094-.077h.989a.1.1,0,0,1,.094.077l.363,1.813a.632.632,0,0,0,.449.484,5.162,5.162,0,0,1,1.14.472.631.631,0,0,0,.66-.025l1.539-1.026a.1.1,0,0,1,.121.012l.7.7a.1.1,0,0,1,.012.121l-1.026,1.539a.631.631,0,0,0-.025.66,5.155,5.155,0,0,1,.472,1.14.631.631,0,0,0,.484.449l1.813.363a.1.1,0,0,1,.077.094v.989a.1.1,0,0,1-.077.094l-1.813.363a.632.632,0,0,0-.484.449,5.162,5.162,0,0,1-.472,1.14.632.632,0,0,0,.025.66l1.026,1.539a.1.1,0,0,1-.012.121l-.7.7a.1.1,0,0,1-.121.012l-1.539-1.026a.631.631,0,0,0-.66-.025,5.162,5.162,0,0,1-1.14.472.631.631,0,0,0-.449.484l-.363,1.813a.1.1,0,0,1-.094.077h-.989a.1.1,0,0,1-.094-.077l-.363-1.813a.632.632,0,0,0-.449-.484,5.162,5.162,0,0,1-1.14-.472.631.631,0,0,0-.66.025L47.007,116.6a.1.1,0,0,1-.121-.012l-.7-.7a.1.1,0,0,1-.012-.121l1.026-1.539a.632.632,0,0,0,.025-.66,5.162,5.162,0,0,1-.472-1.14.631.631,0,0,0-.484-.449l-1.813-.363a.1.1,0,0,1-.077-.094v-.989a.1.1,0,0,1,.077-.094Z" transform="translate(-39.747 -94.401)"/><path class="a" d="M117.828,180.143a3.032,3.032,0,1,0-3.032-3.032A3.035,3.035,0,0,0,117.828,180.143Zm0-4.8a1.768,1.768,0,1,1-1.768,1.768A1.77,1.77,0,0,1,117.828,175.343Z" transform="translate(-105.828 -160.48)"/><path class="a" d="M302.443,75.453a.631.631,0,0,0-.632.632V96.3a.632.632,0,1,0,1.263,0V94.4H313.39a1.475,1.475,0,0,0,1.474-1.474V91.242a1.475,1.475,0,0,0-1.474-1.474h-2.526a.632.632,0,0,0,0,1.263h2.526a.211.211,0,0,1,.211.211v1.684a.211.211,0,0,1-.211.211H303.074V91.032h5.263a.632.632,0,1,0,0-1.263h-5.263V88.506h6.105a1.475,1.475,0,0,0,1.474-1.474V85.348a1.475,1.475,0,0,0-1.474-1.474H307.5a.632.632,0,0,0,0,1.263h1.684a.211.211,0,0,1,.211.211v1.684a.211.211,0,0,1-.211.211h-6.105V85.137h1.895a.632.632,0,0,0,0-1.263h-1.895V82.611h2.737a1.475,1.475,0,0,0,1.474-1.474V79.453a1.475,1.475,0,0,0-1.474-1.474h-2.737v-1.9A.631.631,0,0,0,302.443,75.453Zm3.368,3.789a.211.211,0,0,1,.211.211v1.684a.211.211,0,0,1-.211.211h-2.737V79.243h2.737Z" transform="translate(-278.232 -69.558)"/></svg>