<svg xmlns="http://www.w3.org/2000/svg" viewBox="0 0 50 36.706">
  <defs>
    <style>
      .cls-1 {
        fill: #00d664;
      }
    </style>
  </defs>
  <g id="_476700" data-name="476700" transform="translate(0 -68.066)">
    <g id="Group_178" data-name="Group 178" transform="translate(38.355 83.728)">
      <g id="Group_177" data-name="Group 177">
        <path id="Path_133" data-name="Path 133" class="cls-1" d="M398.51,229.309a14.29,14.29,0,0,0-5.026-.86.732.732,0,0,0,0,1.465,12.647,12.647,0,0,1,4.371.706.732.732,0,0,0,.655-1.31Z" transform="translate(-392.751 -228.449)"/>
      </g>
    </g>
    <g id="Group_180" data-name="Group 180" transform="translate(0 68.066)">
      <g id="Group_179" data-name="Group 179">
        <path id="Path_134" data-name="Path 134" class="cls-1" d="M47.765,95.017l-3.025-.864a.307.307,0,0,1-.222-.294v-1.01a5.5,5.5,0,0,0,.7-.574,5.388,5.388,0,0,0,1.649-3.9V86.983l.292-.585a4.672,4.672,0,0,0,.491-2.079V80.545a.732.732,0,0,0-.732-.732H39.87a4.653,4.653,0,0,0-4.648,4.648V84.5a3.885,3.885,0,0,0,.408,1.728l.375.75v1.2A5.715,5.715,0,0,0,38.355,92.8v1.058c0,.163,0,.231-.6.4l-1.476.422L32,93.131a.732.732,0,0,0-.2-.561L30.44,91.137V88.731c.144-.119.286-.241.424-.37a8.6,8.6,0,0,0,2.708-6.249V80.19a8.466,8.466,0,0,0,.783-3.56V68.8a.732.732,0,0,0-.732-.732H22.66a7.005,7.005,0,0,0-7,7V76.63a8.466,8.466,0,0,0,.783,3.56v1.653a8.95,8.95,0,0,0,3.133,6.831v2.463L18.214,92.57a.732.732,0,0,0-.2.561L13.508,94.77a3.841,3.841,0,0,0-.905.474l-.708-.354A5.594,5.594,0,0,0,14.7,92.62a.732.732,0,0,0,0-.655,13.012,13.012,0,0,1-.643-4.547c-.017-.518-.033-1.007-.064-1.442A6.371,6.371,0,0,0,7.78,79.813a6.371,6.371,0,0,0-6.212,6.162c-.031.436-.047.925-.064,1.443A13.012,13.012,0,0,1,.86,91.965a.732.732,0,0,0,0,.655,5.593,5.593,0,0,0,2.809,2.269L1.7,95.871A3.066,3.066,0,0,0,0,98.628v5.411a.732.732,0,0,0,1.465,0V98.628a1.608,1.608,0,0,1,.894-1.446l2.448-1.224.851.809a3.08,3.08,0,0,0,4.246,0l.851-.809.8.4a3.857,3.857,0,0,0-.589,2.045v5.637a.732.732,0,0,0,1.465,0V98.4a2.407,2.407,0,0,1,1.58-2.256l4.751-1.728,1.978,2.967a1.51,1.51,0,0,0,1.112.667q.076.007.151.007a1.51,1.51,0,0,0,1.07-.444l1.207-1.207v7.629a.732.732,0,0,0,1.465,0V96.41l1.207,1.207a1.509,1.509,0,0,0,1.07.444q.075,0,.151-.007a1.51,1.51,0,0,0,1.112-.667l1.978-2.967,4.751,1.728A2.408,2.408,0,0,1,37.59,98.4v5.637a.732.732,0,0,0,1.465,0V98.4a3.872,3.872,0,0,0-1.083-2.68l.181-.052a4.016,4.016,0,0,0,.682-.246l1.87,1.87v6.745a.732.732,0,0,0,1.465,0V97.295l1.857-1.857a1.742,1.742,0,0,0,.312.124l3.025.864a1.624,1.624,0,0,1,1.173,1.555v6.059a.732.732,0,0,0,1.465,0V97.98A3.1,3.1,0,0,0,47.765,95.017ZM4.7,93.723a5.265,5.265,0,0,1-2.351-1.509,8.073,8.073,0,0,0,.417-1.754A5.462,5.462,0,0,0,4.7,92.845Zm4.2,1.982a1.616,1.616,0,0,1-2.228,0l-.681-.647a1.515,1.515,0,0,0,.178-.715v-.781a5.446,5.446,0,0,0,3.234,0v.78a1.515,1.515,0,0,0,.178.716ZM7.781,92.343a3.971,3.971,0,0,1-3.966-3.966.728.728,0,0,0-.853-.722c0-.063,0-.126.006-.188.016-.5.032-.979.061-1.387A5.438,5.438,0,0,1,4.51,82.664a4.551,4.551,0,0,1,6.541,0,5.438,5.438,0,0,1,1.481,3.415c.029.408.045.883.061,1.387l0,.131A6.581,6.581,0,0,0,8.98,84.953a9.192,9.192,0,0,0-2.786-.441.732.732,0,0,0-.507.224L4.366,86.106A.732.732,0,0,0,5.42,87.123l1.1-1.14c.947.046,3.994.4,5.178,3.01A3.957,3.957,0,0,1,7.781,92.343Zm3.081,1.383v-.874A5.418,5.418,0,0,0,12.8,90.464a8.063,8.063,0,0,0,.417,1.75A5.29,5.29,0,0,1,10.862,93.725ZM17.91,81.843V80.026a.733.733,0,0,0-.073-.318,7.025,7.025,0,0,1-.71-3.078V75.063a5.539,5.539,0,0,1,5.533-5.533H32.891v7.1a7.025,7.025,0,0,1-.71,3.078.733.733,0,0,0-.073.318v2.085a7.031,7.031,0,0,1-2.245,5.18,7.291,7.291,0,0,1-.562.476l-.013.009A7.042,7.042,0,0,1,24.535,89.2,7.254,7.254,0,0,1,17.91,81.843Zm4.124,14.737a.046.046,0,0,1-.041.015.047.047,0,0,1-.037-.022l-2.278-3.417.733-.77,3.456,2.362Zm2.975-2.826-3.966-2.711V89.676a8.247,8.247,0,0,0,3.4.981q.29.019.576.019a8.484,8.484,0,0,0,3.959-.97v1.338Zm3.053,2.819a.047.047,0,0,1-.037.022.045.045,0,0,1-.041-.015l-1.833-1.833,3.456-2.362.733.77Zm13.374-.618-1.662-1.662a2.009,2.009,0,0,0,.045-.435v-.309a5.136,5.136,0,0,0,1.45.256l.169,0a5.44,5.44,0,0,0,1.615-.244v.295a1.751,1.751,0,0,0,.053.427ZM44.2,91.223a3.936,3.936,0,0,1-2.884,1.118A4.1,4.1,0,0,1,37.47,88.18V86.81a.732.732,0,0,0-.077-.328l-.452-.9a2.413,2.413,0,0,1-.253-1.073v-.044a3.187,3.187,0,0,1,3.183-3.183h6.316V84.32a3.2,3.2,0,0,1-.336,1.424l-.37.739a.732.732,0,0,0-.077.328v1.566A3.935,3.935,0,0,1,44.2,91.223Z" transform="translate(0 -68.066)"/>
      </g>
    </g>
    <g id="Group_182" data-name="Group 182" transform="translate(45.403 98.608)">
      <g id="Group_181" data-name="Group 181">
        <path id="Path_135" data-name="Path 135" class="cls-1" d="M465.655,380.814a.732.732,0,0,0-.732.732v4.7a.732.732,0,0,0,1.465,0v-4.7A.733.733,0,0,0,465.655,380.814Z" transform="translate(-464.923 -380.814)"/>
      </g>
    </g>
    <g id="Group_184" data-name="Group 184" transform="translate(3.133 99.576)">
      <g id="Group_183" data-name="Group 183">
        <path id="Path_136" data-name="Path 136" class="cls-1" d="M32.809,390.728a.732.732,0,0,0-.732.732v3.731a.732.732,0,0,0,1.465,0V391.46A.732.732,0,0,0,32.809,390.728Z" transform="translate(-32.077 -390.728)"/>
      </g>
    </g>
    <g id="Group_186" data-name="Group 186" transform="translate(18.795 74.72)">
      <g id="Group_185" data-name="Group 185">
        <path id="Path_137" data-name="Path 137" class="cls-1" d="M204.674,138.378c-2.77-2.77-8.566-2.241-10.929-1.884a1.5,1.5,0,0,0-1.285,1.5v1.687a.732.732,0,1,0,1.465,0v-1.687a.048.048,0,0,1,.038-.05,23.139,23.139,0,0,1,4.758-.232c2.284.152,3.938.725,4.917,1.7a.732.732,0,1,0,1.036-1.036Z" transform="translate(-192.46 -136.203)"/>
      </g>
    </g>
    <g id="Group_188" data-name="Group 188" transform="translate(15.663 100.174)">
      <g id="Group_187" data-name="Group 187">
        <path id="Path_138" data-name="Path 138" class="cls-1" d="M161.116,396.853a.732.732,0,0,0-.732.732v3.133a.732.732,0,0,0,1.465,0v-3.133A.732.732,0,0,0,161.116,396.853Z" transform="translate(-160.384 -396.853)"/>
      </g>
    </g>
    <g id="Group_190" data-name="Group 190" transform="translate(32.891 100.174)">
      <g id="Group_189" data-name="Group 189">
        <path id="Path_139" data-name="Path 139" class="cls-1" d="M337.538,396.853a.732.732,0,0,0-.732.732v3.133a.732.732,0,0,0,1.465,0v-3.133A.732.732,0,0,0,337.538,396.853Z" transform="translate(-336.806 -396.853)"/>
      </g>
    </g>
  </g>
</svg>
