<svg xmlns="http://www.w3.org/2000/svg" viewBox="0 0 45 32.649"><defs><style>.a{fill:#08f;}</style></defs><path class="a" d="M41.087,0H3.913A3.889,3.889,0,0,0,0,3.841V28.808a3.889,3.889,0,0,0,3.913,3.841H41.087A3.889,3.889,0,0,0,45,28.808V3.841A3.889,3.889,0,0,0,41.087,0Zm0,1.921a1.832,1.832,0,0,1,1.957,1.921V4.8H13.3V1.921Zm-29.739,0V4.8H7.63V1.921ZM1.957,3.841A1.832,1.832,0,0,1,3.913,1.921H5.674V4.8H1.957Zm39.13,26.887H3.913a1.832,1.832,0,0,1-1.957-1.921V6.722H43.043V28.808A1.832,1.832,0,0,1,41.087,30.728Z"/><path class="a" d="M4.513,7.538a.958.958,0,0,0-1.37,0,.917.917,0,0,0,0,1.344L8.23,13.876,3.143,18.869a.917.917,0,0,0,0,1.344c.2.192.391.192.783.192s.587,0,.783-.192l5.674-5.57a.917.917,0,0,0,0-1.344Z" transform="translate(2.726 6.674)"/><path class="a" d="M16.987,13.1H8.378a.96.96,0,1,0,0,1.921h8.609a.96.96,0,1,0,0-1.921Z" transform="translate(7.078 12.059)"/></svg>