<svg xmlns="http://www.w3.org/2000/svg" viewBox="0 0 50 49.84">
  <defs>
    <style>
      .cls-1 {
        fill: #00d664;
      }
    </style>
  </defs>
  <g id="_681662" data-name="681662" transform="translate(0 -0.82)">
    <g id="Group_192" data-name="Group 192" transform="translate(35.207 35.969)">
      <g id="Group_191" data-name="Group 191">
        <path id="Path_140" data-name="Path 140" class="cls-1" d="M369.552,360.805a.734.734,0,0,0-.8.159l-8.02,8.02a.734.734,0,0,0,.519,1.253h8.02a.734.734,0,0,0,.734-.734v-8.02A.734.734,0,0,0,369.552,360.805Zm-6.529,7.964,5.515-5.515v5.515Z" transform="translate(-360.517 -360.749)"/>
      </g>
    </g>
    <g id="Group_194" data-name="Group 194" transform="translate(0 0.82)">
      <g id="Group_193" data-name="Group 193">
        <path id="Path_141" data-name="Path 141" class="cls-1" d="M49.547,24.262a.734.734,0,0,0-.8.159l-2.2,2.2V11.675a.734.734,0,0,0-.734-.734H40.177l2.047-2.047h0L44.2,6.921a2.238,2.238,0,0,0,0-3.165L41.916,1.475a2.238,2.238,0,0,0-3.165,0L36.778,3.449,34.394,5.833l-5.108,5.108H6.506V3.68a.734.734,0,0,0-.734-.734A5.779,5.779,0,0,0,0,8.719V39.889a.736.736,0,0,0,.017.158,5.559,5.559,0,0,0,5.542,5.136H27.985l-4.224,4.224a.734.734,0,0,0,.519,1.253H49.266A.734.734,0,0,0,50,49.926V24.94A.734.734,0,0,0,49.547,24.262ZM39.789,2.513a.771.771,0,0,1,1.089,0l2.281,2.281a.771.771,0,0,1,0,1.089L41.7,7.337l-3.37-3.37ZM37.3,5.005l3.37,3.37L39.32,9.722l-3.369-3.37ZM48.532,33.186H47.178a.734.734,0,0,0,0,1.468h1.354v2.212H47.178a.734.734,0,0,0,0,1.468h1.354v2.211H47.178a.734.734,0,0,0,0,1.468h1.354v2.212H47.178a.734.734,0,0,0,0,1.468h1.354v3.5H26.052l7.413-7.413a.734.734,0,0,0-1.038-1.038l-2.974,2.974H5.559a4.068,4.068,0,0,1-4.088-3.959q.006-.209.032-.414v0q.012-.1.029-.194l0-.022q.015-.086.034-.171l.011-.047q.017-.072.036-.143c.007-.026.014-.051.022-.077s.022-.075.034-.111.024-.073.037-.11.018-.051.027-.076c.018-.048.037-.1.056-.143l.017-.041c.025-.059.051-.117.079-.174l0-.007a4.32,4.32,0,0,1,3-2.348l.011,0c.061-.012.122-.023.184-.033l.031-.005c.056-.008.112-.015.168-.021l.047-.006c.054-.005.109-.009.164-.013l.052,0q.108-.005.217-.005a.734.734,0,0,0,.734-.734V29.53a.734.734,0,1,0-1.468,0v4.633a5.732,5.732,0,0,0-3.3,1.6c-.1.093-.186.19-.274.288V8.719a4.312,4.312,0,0,1,3.57-4.242V26.594h0a.734.734,0,1,0,1.468,0h0V12.408H27.818l-4.057,4.057A.734.734,0,1,0,24.8,17.5l5.31-5.31h0l4.8-4.8,3.369,3.37-.4.4h0l-14.8,14.8-3.37-3.37,2.917-2.917A.734.734,0,1,0,21.6,18.629l-3.436,3.436a.738.738,0,0,0-.052.058l-.015.021c-.01.014-.021.028-.03.042l-.015.026c-.008.014-.016.028-.023.042l-.013.028c-.007.014-.013.029-.018.044l-.006.015-1.43,4.05-.975,2.762a.742.742,0,0,0-.029.112H13.114a.734.734,0,0,0,0,1.468H33.438a.734.734,0,1,0,0-1.468H18.857l4.476-1.58.011,0,.051-.021.02-.009.052-.029.017-.01c.018-.011.035-.024.052-.037l.013-.009a.737.737,0,0,0,.059-.053l15.1-15.1h6.373V28.087l-10.5,10.5a.734.734,0,0,0,0,1.038.749.749,0,0,0,.056.05.733.733,0,0,0,.982-.05h0L48.532,26.712Zm-26.787-6.5-2.1.742-1.4-1.4.742-2.1Z" transform="translate(0 -0.82)"/>
      </g>
    </g>
  </g>
</svg>
