<svg xmlns="http://www.w3.org/2000/svg" width="2430.1" height="470.5">
  <style>
    .st0{fill:#36425d}
  </style>
  <path class="st0" d="M386.4 360.8c-30.5 4-60.8 8.6-91.2 13.3-15.2 2.3-30.3 4.8-45.5 7.2-15.2 2.4-30.3 5-45.4 7.5l-45.4 7.7-45.3 8c-20 3.5-39.9 7.2-59.8 10.9l.4-22.3.9-52.4c.6-34.9 1.1-69.8 1.3-104.7.2-34.9.2-69.8-.1-104.7-.2-24.2-.5-48.4-.9-72.6L68 61.1l45.2 8.3 45.3 8 45.3 7.8c30.3 5 60.5 10 90.9 14.7 15.2 2.4 30.4 4.5 45.5 6.8l22.8 3.4 14.2 2 .9 22.3 1.5 32.2c1 21.5 2.1 43 3.2 64.4.1 2.7 2.3 4.9 5 5 2.9.2 5.5-2.1 5.6-5 1.2-21.5 2.3-43 3.2-64.4l1.5-32.2 1.3-32.2c.2-4.9-2.9-9.4-7.8-10.8l-1.2-.3-22.2-6.3-22.2-6.1c-14.8-4-29.6-8.1-44.5-12-29.7-7.9-59.4-15.5-89.1-23L168 32.5l-44.7-10.8-44.8-10.6L33.7.7C32 .3 30.1 0 28.3 0 13.9-.3 2 11.2 1.8 25.6v1.1C1.1 61.6.5 96.5.2 131.4c-.3 34.9-.3 69.8-.1 104.7.2 34.9.7 69.8 1.3 104.7l.9 52.4.4 26.2.6 26.2v1.3c0 1.6.3 3.3.6 4.9C7 464.9 20.1 473 33.2 469.9c29.8-7 59.7-13.8 89.5-21.1l44.7-10.8 44.6-11.1c14.9-3.7 29.8-7.4 44.6-11.3 14.8-3.9 29.7-7.6 44.5-11.6 29.7-7.9 59.3-15.9 88.8-24.4 4.4-1.3 7.4-5.6 6.8-10.4-.4-5.4-5.1-9-10.3-8.4z"/>
  <path class="st0" d="M439.9 347.8L214 134.7l-.4-.4c-9.9-8.9-25-8.1-33.9 1.8l-.3.3-93.2 103.7c-6.8 7.6-6.8 19.4.4 27 7.6 8 20.1 8.3 28.1.8l84.9-80.5 230.2 172.5c3.2 2.4 7.7 2.1 10.5-.9 3-3.2 2.8-8.2-.4-11.2zM672.4 347.7c-2.6 1.7-6.2 3.8-10.9 6.2-4.7 2.4-10.2 4.6-16.6 6.7-6.4 2.1-13.6 3.8-21.7 5.2-8 1.4-16.6 2.1-25.8 2.1-18.7 0-35.4-3.2-50.2-9.6-14.8-6.4-27.3-15-37.5-25.9-10.2-10.9-18-23.6-23.5-38.1-5.4-14.6-8.1-29.9-8.1-46 0-17.8 3.3-34.3 9.8-49.4 6.5-15.1 15.4-28.1 26.6-39.1 11.2-11 24.2-19.5 39.1-25.6 14.9-6.1 30.8-9.1 47.8-9.1 6.5 0 13.1.5 19.7 1.5s12.9 2.2 18.7 3.7c5.9 1.5 11 3.3 15.5 5.2 4.5 2 7.7 4 9.6 6.2-2 3-3.5 5.5-4.6 7.5-1.1 2-2.2 4-3.4 6-1.2 2.1-2.5 4.4-3.9 7-1.4 2.6-3.4 6.2-6 10.8-2.6-1.7-5.8-3.3-9.5-4.6-3.7-1.3-7.6-2.3-11.6-3.1-4-.8-8.1-1.4-12.2-1.8-4.1-.4-7.8-.7-11.1-.7-12.2 0-23.4 2.3-33.7 6.8-10.3 4.6-19.2 10.6-26.7 18.1-7.5 7.5-13.4 16.2-17.6 26.2-4.2 10-6.4 20.3-6.4 31 0 10.4 2 20.6 6 30.5 4 9.9 9.7 18.6 17 26.2 7.3 7.6 15.9 13.7 25.9 18.4 10 4.7 21.1 7 33.3 7 7 0 13.7-.7 20.2-2.1 6.5-1.4 12.3-3 17.3-4.7 5-1.7 9.1-3.5 12.2-5.2 3.1-1.7 4.8-2.9 5.1-3.6l17.2 36.3zM682.8 295.9c0-10 1.9-19.4 5.7-28.2 3.8-8.8 9.1-16.5 15.8-23 6.7-6.5 14.6-11.7 23.6-15.5 9-3.8 18.6-5.7 28.8-5.7 10.4 0 20.1 1.9 29 5.7 8.9 3.8 16.6 9 23 15.5 6.4 6.5 11.5 14.2 15.2 23 3.7 8.8 5.5 18.2 5.5 28.2s-1.8 19.5-5.4 28.4c-3.6 8.9-8.6 16.7-15.2 23.3-6.5 6.6-14.2 11.8-23.1 15.6-8.9 3.8-18.7 5.7-29.3 5.7-10.2 0-19.8-1.7-28.7-5.2-8.9-3.5-16.7-8.4-23.3-14.8-6.6-6.4-11.9-14.1-15.8-23.1-3.8-9.1-5.8-19-5.8-29.9zm31 .3c0 5.9 1.1 11.4 3.3 16.5 2.2 5.1 5.2 9.6 9 13.4 3.8 3.8 8.3 6.8 13.4 9s10.6 3.3 16.5 3.3 11.4-1.1 16.5-3.3c5.1-2.2 9.6-5.2 13.4-9 3.8-3.8 6.8-8.3 9.1-13.4s3.4-10.6 3.4-16.5-1.1-11.4-3.4-16.5-5.3-9.6-9.1-13.4c-3.8-3.8-8.3-6.8-13.4-9.1s-10.6-3.4-16.5-3.4-11.4 1.1-16.5 3.4-9.6 5.3-13.4 9.1c-3.8 3.8-6.8 8.3-9 13.4-2.2 5.2-3.3 10.7-3.3 16.5zM936.8 263.6c-6.1 0-11.9.8-17.4 2.3-5.5 1.5-10.4 3.9-14.7 7-4.2 3.2-7.7 7.1-10.3 11.7-2.6 4.7-3.9 10.2-3.9 16.5v64.2h-31.3V226.8h27.4c.4 7.8.9 14.2 1.5 19.1.5 4.9 1 10.4 1.5 16.5 2.8-6.1 6.6-11.5 11.4-16.3 4.8-4.8 9.7-8.9 14.8-12.2 5.1-3.4 10.2-6 15.2-7.8 5-1.8 9.2-2.8 12.7-2.8l-6.9 40.3zM1042.4 263.6c-6.1 0-11.9.8-17.4 2.3-5.5 1.5-10.4 3.9-14.7 7-4.2 3.2-7.7 7.1-10.3 11.7-2.6 4.7-3.9 10.2-3.9 16.5v64.2h-31.3V226.8h27.4c.4 7.8.9 14.2 1.5 19.1.5 4.9 1 10.4 1.5 16.5 2.8-6.1 6.6-11.5 11.4-16.3 4.8-4.8 9.7-8.9 14.8-12.2 5.1-3.4 10.2-6 15.2-7.8 5-1.8 9.2-2.8 12.7-2.8l-6.9 40.3zM1066.8 173c0-5.6 2.1-10.3 6.2-14 4.1-3.7 8.6-5.5 13.4-5.5 4.8 0 9.2 1.8 13.2 5.5s6 8.4 6 14c0 5.9-2 10.6-6 14.2-4 3.6-8.4 5.4-13.2 5.4-4.8 0-9.2-1.8-13.4-5.4-4.1-3.6-6.2-8.3-6.2-14.2zm34.9 192.3h-31.3V226.8h31.3v138.5zM1131.7 296.2c0-10.9 1.8-20.8 5.4-29.7 3.6-8.9 8.6-16.6 15-23 6.4-6.4 13.9-11.4 22.5-15 8.6-3.6 18-5.4 28.2-5.4 7 0 13 .8 18.3 2.3 5.2 1.5 9.7 3.4 13.4 5.5 3.7 2.2 6.7 4.5 9 7s4.1 4.6 5.4 6.4V110.7h31.3v254.6h-31.3v-9.1c0-1.1.1-2.3.3-3.6.2-1.3.3-2.3.3-2.9-2 2-4.3 4.1-7.2 6.4-2.8 2.3-6.2 4.4-10.1 6.4-3.9 2-8.3 3.5-13.2 4.7-4.9 1.2-10.5 1.8-16.8 1.8-11.1 0-21-1.9-29.8-5.7-8.8-3.8-16.2-9-22.2-15.6s-10.5-14.3-13.7-23.1c-3.2-9-4.8-18.4-4.8-28.4zm31.3-.6c0 6.1 1 11.7 3.1 17 2.1 5.2 5 9.7 8.8 13.5 3.8 3.8 8.3 6.8 13.5 9 5.2 2.2 11 3.3 17.3 3.3 6.3 0 12.1-1.1 17.4-3.3 5.3-2.2 9.9-5.2 13.7-9.1 3.8-3.9 6.7-8.5 8.8-13.7 2.1-5.2 3.1-10.8 3.1-16.6 0-5.9-1-11.4-3.1-16.5s-5-9.5-8.8-13.2c-3.8-3.7-8.4-6.6-13.7-8.8-5.3-2.2-11.1-3.3-17.4-3.3-6.3 0-12.1 1-17.3 3.1-5.2 2.1-9.7 5-13.5 8.8-3.8 3.8-6.7 8.3-8.8 13.4-2.1 5-3.1 10.5-3.1 16.4zM1309.7 295.9c0-10 1.9-19.4 5.7-28.2 3.8-8.8 9.1-16.5 15.8-23 6.7-6.5 14.6-11.7 23.6-15.5 9-3.8 18.6-5.7 28.8-5.7 10.4 0 20.1 1.9 29 5.7 8.9 3.8 16.6 9 23 15.5 6.4 6.5 11.5 14.2 15.2 23 3.7 8.8 5.5 18.2 5.5 28.2s-1.8 19.5-5.4 28.4c-3.6 8.9-8.6 16.7-15.2 23.3-6.5 6.6-14.2 11.8-23.1 15.6-8.9 3.8-18.7 5.7-29.3 5.7-10.2 0-19.8-1.7-28.7-5.2-8.9-3.5-16.7-8.4-23.3-14.8-6.6-6.4-11.9-14.1-15.8-23.1-3.9-9.1-5.8-19-5.8-29.9zm30.9.3c0 5.9 1.1 11.4 3.3 16.5 2.2 5.1 5.2 9.6 9 13.4 3.8 3.8 8.3 6.8 13.4 9s10.6 3.3 16.5 3.3 11.4-1.1 16.5-3.3c5.1-2.2 9.6-5.2 13.4-9 3.8-3.8 6.8-8.3 9.1-13.4s3.4-10.6 3.4-16.5-1.1-11.4-3.4-16.5-5.3-9.6-9.1-13.4c-3.8-3.8-8.3-6.8-13.4-9.1s-10.6-3.4-16.5-3.4-11.4 1.1-16.5 3.4-9.6 5.3-13.4 9.1c-3.8 3.8-6.8 8.3-9 13.4-2.2 5.2-3.3 10.7-3.3 16.5zM1563.6 263.6c-6.1 0-11.9.8-17.4 2.3-5.5 1.5-10.4 3.9-14.7 7-4.2 3.2-7.7 7.1-10.3 11.7-2.6 4.7-3.9 10.2-3.9 16.5v64.2H1486V226.8h27.4c.4 7.8.9 14.2 1.5 19.1.5 4.9 1 10.4 1.5 16.5 2.8-6.1 6.6-11.5 11.4-16.3 4.8-4.8 9.7-8.9 14.8-12.2 5.1-3.4 10.2-6 15.2-7.8 5-1.8 9.2-2.8 12.7-2.8l-6.9 40.3zM1667.6 365.3V127.7H1812v36.8h-104.6V231h91v37.2h-91v97.1h-39.8zM1958.7 368.6h-26.1l-3.9-38.5c-5 11.1-11.9 20.3-20.7 27.5-8.8 7.3-20.4 10.9-34.7 10.9-14.3 0-25.7-3.7-34.1-11.2-8.4-7.5-12.8-17.4-13.2-29.8V226.8h31.3v86.1c.4 6.7 2.8 12.4 7 17.1 4.2 4.7 11 7.2 20.4 7.7 6.3 0 12.1-1.1 17.3-3.3 5.2-2.2 9.7-5.2 13.5-9.1 3.8-3.9 6.8-8.6 9-14s3.3-11.3 3.3-17.6v-66.8h31v141.7zM1997.2 226.8h27.4c.4 7.8.9 14.2 1.5 19.1.5 4.9 1 10.4 1.5 16.5 5-11.7 12.1-21.2 21.2-28.4 9.1-7.2 20.5-10.8 34.2-10.8 14.1 0 25.4 3.9 33.7 11.6 8.4 7.7 12.8 17.8 13.2 30.2v100.4h-31v-85.7c-.4-6.7-2.8-12.6-7.2-17.4-4.3-4.9-11.1-7.5-20.2-8-6.3 0-12.1 1.1-17.4 3.4-5.3 2.3-9.9 5.4-13.7 9.3-3.8 3.9-6.7 8.6-8.8 14-2.1 5.4-3.1 11.3-3.1 17.6v66.8h-31.3V226.8zM2158.9 296.2c0-10.9 1.8-20.8 5.4-29.7 3.6-8.9 8.6-16.6 15-23 6.4-6.4 13.9-11.4 22.5-15 8.6-3.6 18-5.4 28.2-5.4 7 0 13 .8 18.3 2.3 5.2 1.5 9.7 3.4 13.4 5.5 3.7 2.2 6.7 4.5 9 7s4.1 4.6 5.4 6.4V110.7h31.3v254.6h-31.3v-9.1c0-1.1.1-2.3.3-3.6.2-1.3.3-2.3.3-2.9-2 2-4.3 4.1-7.2 6.4-2.8 2.3-6.2 4.4-10.1 6.4-3.9 2-8.3 3.5-13.2 4.7-4.9 1.2-10.5 1.8-16.8 1.8-11.1 0-21-1.9-29.8-5.7-8.8-3.8-16.2-9-22.2-15.6s-10.5-14.3-13.7-23.1c-3.3-9-4.8-18.4-4.8-28.4zm31.2-.6c0 6.1 1 11.7 3.1 17 2.1 5.2 5 9.7 8.8 13.5 3.8 3.8 8.3 6.8 13.5 9 5.2 2.2 11 3.3 17.3 3.3 6.3 0 12.1-1.1 17.4-3.3 5.3-2.2 9.9-5.2 13.7-9.1 3.8-3.9 6.7-8.5 8.8-13.7 2.1-5.2 3.1-10.8 3.1-16.6 0-5.9-1-11.4-3.1-16.5s-5-9.5-8.8-13.2c-3.8-3.7-8.4-6.6-13.7-8.8-5.3-2.2-11.1-3.3-17.4-3.3-6.3 0-12.1 1-17.3 3.1-5.2 2.1-9.7 5-13.5 8.8-3.8 3.8-6.7 8.3-8.8 13.4-2 5-3.1 10.5-3.1 16.4zM2424.5 239.2c-1.3 2-2.9 4.2-4.7 6.7-1.8 2.5-3.6 4.8-5.4 7-1.7 2.2-3.8 4.9-6.2 8.1-2.2-1.5-4.3-2.7-6.4-3.6-2.1-.9-4.5-1.7-7.2-2.4-2.7-.8-5.5-1.1-8.3-1.1-3 0-6.2.7-9.6 2.1-3.4 1.4-5.1 4.3-5.1 8.6 0 3.7 1.5 6.8 4.4 9.3 2.9 2.5 6.5 4.8 10.8 6.8 4.2 2.1 8.9 4.2 14 6.4s9.8 4.9 14 8.1c4.2 3.3 7.8 7.3 10.8 12.2 2.9 4.9 4.4 10.9 4.4 18.1 0 6.3-1.1 12.1-3.4 17.3-2.3 5.2-5.5 9.7-9.8 13.4-4.2 3.7-9.3 6.6-15.2 8.8-5.9 2.2-12.5 3.3-19.9 3.3-8.9 0-17.6-1.5-25.9-4.6-8.4-3-14.9-7.4-19.7-13 1.5-1.7 3.4-3.9 5.5-6.5 2.2-2.6 4.2-5.1 6.2-7.5 2-2.4 4.3-5.2 7.2-8.5 0-.2.7.2 2.1 1.1 1.4 1 3.3 2.1 5.7 3.4 2.4 1.3 5.2 2.5 8.5 3.6s6.6 1.6 10.1 1.6c5.4 0 9.6-1.2 12.5-3.6 2.9-2.4 4.4-5.3 4.4-8.8 0-3.5-1.5-6.3-4.4-8.5-2.9-2.2-6.5-4.2-10.8-6-4.2-1.8-8.9-3.9-14-6-5.1-2.2-9.8-4.9-14-8.1-4.2-3.3-7.8-7.4-10.8-12.5-2.9-5.1-4.4-11.6-4.4-19.4 0-7.8 1.4-14.3 4.2-19.6 2.8-5.2 6.5-9.5 10.9-12.7 4.5-3.3 9.3-5.6 14.5-7 5.2-1.4 10.3-2.1 15.3-2.1 6.7 0 13.7 1.4 21 4.1 7.6 2.6 13.7 6.5 18.7 11.5z"/>
</svg>