<svg xmlns="http://www.w3.org/2000/svg" width="1302.7" height="200.1">
  <style>
    .st1{fill:#0993f1}
  </style>
  <path d="M189.7 9.2c-1.7-1.5-4.3-1.3-5.7.3l-36.9 41.6c-1.4-.6-3-.9-4.6-.9-6.7 0-12.2 5.5-12.2 12.2 0 4.4 2.3 8.2 5.7 10.3l-8 36c-5.5.7-9.8 4.9-10.6 10.4l-45.3 9.4c-2.1-3.5-6-5.9-10.4-5.9-6.7 0-12.2 5.5-12.2 12.2 0 1.9.5 3.6 1.2 5.2L8 182.7c-1.6 1.6-1.6 4.2 0 5.8.8.8 1.8 1.2 2.9 1.2 1 0 2.1-.4 2.9-1.2l42.7-42.6c1.6.8 3.4 1.2 5.3 1.2 6.2 0 11.2-4.6 12.1-10.6l45.3-9.4c2.1 3.5 6 5.9 10.4 5.9 6.7 0 12.2-5.5 12.2-12.2 0-4.4-2.3-8.2-5.7-10.3l8-36c6-.7 10.7-5.8 10.7-12.1 0-2.1-.6-4.1-1.6-5.9L190 15c1.5-1.7 1.4-4.3-.3-5.8zm-128 132.5c-3.7 0-6.8-3-6.8-6.8s3-6.8 6.8-6.8c3.7 0 6.8 3 6.8 6.8s-3.1 6.8-6.8 6.8zm67.7-14c-3.7 0-6.8-3-6.8-6.8s3-6.8 6.8-6.8 6.8 3 6.8 6.8-3 6.8-6.8 6.8zm13.1-58.4c-3.7 0-6.8-3-6.8-6.8 0-3.7 3-6.8 6.8-6.8s6.8 3 6.8 6.8c0 3.7-3.1 6.8-6.8 6.8z" fill="#0993f1"/>
  <path class="st1" d="M199.2 197.8H100v-24.4h74.8V24.5h-73.4V0h97.8"/>
  <path d="M100 197.9H0V0l24.5.2v173.2H100m181-31.2h67.3v15.1h-86.5V15.2H281v127zm129 17.2c-14.7 0-26.4-4.9-35.1-14.7-8.7-9.8-13-22.5-13-38.1v-4.3c0-15 4.5-27.6 13.4-37.5 9-10 19.5-15 31.8-15 14.3 0 25 4.3 32.3 12.9 7.3 8.6 10.9 20.1 10.9 34.4v12h-68.6l-.3.5c.2 10.1 2.8 18.5 7.7 25s11.9 9.8 20.8 9.8c6.5 0 12.2-.9 17.1-2.8 4.9-1.9 9.2-4.4 12.7-7.7l7.5 12.5c-3.8 3.7-8.8 6.8-14.9 9.3-6 2.5-13.5 3.7-22.3 3.7zm-2.9-94.5c-6.4 0-11.9 2.7-16.5 8.1-4.6 5.4-7.4 12.2-8.4 20.4l.2.5h48.7v-2.5c0-7.5-2-13.8-6.1-18.9-4-5.1-10-7.6-17.9-7.6zm82-13.2l1.4 15.7c3.5-5.6 7.9-9.9 13.2-13 5.3-3.1 11.3-4.6 18.1-4.6 11.4 0 20.2 3.3 26.5 10 6.3 6.7 9.4 17 9.4 30.9v66.7h-19.2V91.1c0-9.3-1.8-15.9-5.5-19.8-3.7-3.9-9.3-5.9-16.8-5.9-5.5 0-10.4 1.3-14.7 4-4.3 2.7-7.7 6.3-10.2 10.9v77.1H472V51.7h17.1zm92.1 54.8c0-17 3.6-30.7 10.9-41.1 7.3-10.4 17.4-15.6 30.5-15.6 6.2 0 11.7 1.1 16.5 3.4 4.8 2.3 8.9 5.6 12.3 10V5h19.2v152.3h-15.7l-2.2-13c-3.5 4.9-7.7 8.7-12.7 11.2-5 2.5-10.8 3.8-17.5 3.8-12.9 0-23-4.7-30.3-14-7.3-9.3-10.9-21.6-10.9-36.9v-1.9zm19.3 2.1c0 10.7 2.2 19.2 6.5 25.6 4.4 6.4 11.1 9.6 20.3 9.6 5.7 0 10.5-1.3 14.5-3.9 3.9-2.6 7.1-6.3 9.6-10.9V79.7c-2.5-4.4-5.7-7.8-9.6-10.4-3.9-2.6-8.7-3.9-14.2-3.9-9.2 0-16.1 3.8-20.5 11.4s-6.6 17.5-6.6 29.7v2.1z" fill="#0993f1"/>
  <path class="st1" d="M801.9 113l.2.6c-1.2 14.3-6.3 25.5-15.2 33.6-8.9 8.2-20.9 12.3-35.8 12.3-15.8 0-28.6-5.7-38.3-17.1-9.7-11.4-14.6-26.2-14.6-44.4V74.8c0-18.1 4.8-32.9 14.6-44.4 9.7-11.5 22.5-17.2 38.3-17.2 15.1 0 27.1 4 35.9 12 8.9 8 13.9 19.3 15.1 33.8l-.2.6H791c-1.6-11.8-5.6-20.8-12.2-27.1S763 23.1 751 23.1c-12.4 0-22.4 4.8-29.9 14.4s-11.3 22-11.3 37v23.3c0 15.2 3.8 27.6 11.3 37.2 7.5 9.6 17.5 14.4 29.9 14.4 12 0 21.3-3.1 27.8-9.2 6.6-6.1 10.6-15.2 12.1-27.4h11zm57.1 15.8l3.7 12.6h.6l31.9-89.6h13.1l-45.9 122.6c-2.7 7.2-6.3 13.2-10.6 18.3-4.4 5-10.7 7.5-19.1 7.5-1.4 0-3-.1-5-.4s-3.4-.6-4.3-.9l1.4-9.8c.8.1 2 .3 3.8.4 1.7.2 3 .2 3.8.2 5.1 0 9.1-1.8 12.2-5.4 3.1-3.6 5.7-8.3 7.8-13.9l5.6-14.3-41-104.4h13l29 77.1zm152.9-21.3c0 15.8-3.6 28.4-10.7 37.8-7.2 9.4-17 14.1-29.6 14.1-7.4 0-13.9-1.4-19.5-4.2s-10.1-6.8-13.6-12V198h-11.7V51.7h9.9l1.5 16.4c3.5-5.9 8.1-10.4 13.6-13.6 5.6-3.2 12.1-4.8 19.7-4.8 12.7 0 22.6 5.1 29.8 15.2 7.2 10.1 10.7 23.6 10.7 40.5v2.1zm-11.7-2.2c0-13.4-2.7-24.4-8-32.8-5.3-8.5-13.2-12.7-23.4-12.7-7.9 0-14.3 1.9-19.2 5.6-4.9 3.7-8.6 8.6-11.1 14.6v50.8c2.7 5.8 6.5 10.4 11.6 13.7 5 3.3 11.3 5 18.9 5 10.2 0 18-3.8 23.3-11.5 5.3-7.7 8-17.9 8-30.6v-2.1zm49.7-35.5c3.5-6.3 8.2-11.2 14.1-14.7s12.7-5.3 20.5-5.3c11.1 0 19.7 3.5 25.6 10.4 6 6.9 8.9 17.6 8.9 32.1v65.1h-11.7V91.9c0-11.5-2.3-19.7-6.8-24.7s-10.8-7.5-18.7-7.5c-8 0-14.7 2.1-20.1 6.3s-9.3 9.8-11.9 16.8v74.6h-11.7V5h11.7v64.8zm139.2 89.6c-13.2 0-24.2-4.9-33-14.6-8.8-9.8-13.1-22.1-13.1-37.1v-5.4c0-15.1 4.3-27.6 13-37.6s19.2-14.9 31.6-14.9c13 0 23.1 4.1 30.6 12.3s11.1 19.1 11.1 32.8v10h-74.6v2.8c0 11.9 3.2 21.8 9.5 29.8s14.6 12 24.9 12c7.3 0 13.5-1 18.7-3 5.1-2 9.5-4.9 13.2-8.7l5 8c-4 4.2-9 7.5-15.1 10-6.1 2.4-13.4 3.6-21.8 3.6zm-1.4-99.7c-8.7 0-15.9 3.3-21.8 9.9-5.9 6.6-9.3 14.9-10.3 24.8l.2.5h61.9V92c0-9.2-2.7-16.8-8.1-23-5.4-6.2-12.7-9.3-21.9-9.3zm113.5 2.1l-8.7-.6c-7.4 0-13.4 2.1-18.1 6.2-4.7 4.1-8.1 9.8-10.1 17v72.9h-11.7V51.7h10.3l1.5 17.6v1.2c3.1-6.5 7.2-11.6 12.3-15.2 5.1-3.6 11.3-5.5 18.4-5.5 1.5 0 2.9.1 4.3.3 1.4.2 2.6.5 3.5.7l-1.7 11z"/>
</svg>