<svg xmlns="http://www.w3.org/2000/svg" width="980.1" height="342.6">
  <style>
    .st0{fill:#000c28}
  </style>
  <path class="st0" d="M389.1 117.6l-42.2.7c2.1-20 4.2-42.1 6.1-66.3h11.1c10.5 0 20.5.2 30.1.7s19.2 1.1 28.9 2l8.6.7c12.1.8 18.2-4.4 18.2-15.7 0-3.4-.9-6.2-2.6-8.4-1.7-2.1-4.9-3.5-9.5-4.2-21.3-2.9-45.8-4.4-73.7-4.4-40.1 0-70.6 4.6-91.5 13.8-20.9 9.2-31.3 23.9-31.3 44.2 0 6.2.9 11.9 2.7 16.9 1.8 5.1 3.7 8.4 5.6 10.1 3.1 2.6 6.9 3.9 11.3 3.9 4.1 0 7.8-1.1 11.1-3.3 3.3-2.2 4.9-4.8 4.9-7.7 0-1.5-.5-2.9-1.5-4.4-3.3-5.1-4.9-10.4-4.9-16 0-8 3.6-14.1 10.8-18.2 7.2-4.1 19.6-7 37.3-8.6-2.3 25.7-4.4 47.6-6.4 65.6-4.4.2-8.9.2-13.5.2-5.1 0-8.9 1.4-11.5 4.1-2.6 2.7-3.9 6.6-3.9 11.7 0 3.9 1.4 7 4.1 9.1 2.7 2.1 5.9 3.2 9.7 3.2h11.8l-1.5 13.5c-1.8 16.4-5.9 28.4-12.2 36-6.3 7.6-14.1 11.4-23.5 11.4-11.6 0-21.4-5.2-29.2-15.5-2.9-3.8-5.4-6.3-7.2-7.6-1.9-1.3-3.8-2-5.8-2-2.8 0-5.1 1.5-7 4.4-1.9 2.9-2.8 6.4-2.8 10.3s.9 7.3 2.7 10.1c4.4 6.9 11.3 12.7 20.6 17.6 9.3 4.8 19.6 7.2 30.7 7.2 19.6 0 35.1-5.7 46.3-17.2 11.2-11.5 18.5-30.7 22-57.7l1.5-10.6h42c6.1 0 10.7-1.6 14-4.8 3.3-3.2 4.9-7.6 4.9-13.1 0-3.6-1-6.5-3.1-8.6-2.1-2-6.1-3.1-12.2-3.1zm386.6-17.4c7 0 12.7-1.9 16.9-5.8 4.3-3.8 6.4-9 6.4-15.6 0-5.4-1.9-9.6-5.6-12.5-3.8-2.9-8.7-4.4-14.7-4.4-6.7 0-12.3 1.9-16.8 5.8-4.5 3.8-6.8 8.6-6.8 14.4 0 5.7 1.7 10.2 5.2 13.4 3.4 3.1 8.5 4.7 15.4 4.7z"/>
  <path class="st0" d="M977.9 117.9c-1.5-1-4.1-1.5-7.9-1.5-5.4 0-9.5 1.1-12.2 3.2-2.7 2.1-4.7 5.6-6 10.6-3.9 14.6-8 26.9-12.2 36.8-4.2 10-8.1 17.4-11.8 22.4s-6.8 7.4-9.2 7.4c-3.4 0-5.2-3.1-5.2-9.3 0-3.9.5-9 1.5-15.1s2.1-12.6 3.4-19.3c1-4.9 2.3-10.4 3.9-16.5 1.8-7.5 2.7-12 2.7-13.3 0-2.3-.7-4-2.1-5.2-1.4-1.1-3.9-1.7-7.5-1.7-6.4 0-11.1 1.1-14 3.2-2.9 2.1-5.2 5.6-6.9 10.6-3.8 11.5-6.5 22.3-8.1 32.5-1.2 7.4-1.9 15.4-2.3 23.9-5.1 5.7-9.5 9.9-13.2 12.7-5.1 3.8-11 5.8-17.7 5.8-4.3 0-7.7-1.4-10.3-4.3-2.6-2.9-4.5-7.7-5.6-14.4 18.5-25.2 33.2-50.7 44-76.4 10.8-25.7 16.2-48.3 16.2-67.8 0-13.6-2.3-24-6.8-31.3C886.3 3.6 880.1 0 872.2 0c-13.9 0-25.9 9.2-36 27.5-10.1 18.3-17.7 40.3-22.8 65.8-5.2 25.5-7.7 48.3-7.7 68.3 0 7.8.5 15 1.5 21.7-5.9 6.9-10.7 12.1-14.5 15.6-4.4 4.1-8.1 6.1-11.1 6.1-3.1 0-5.3-1.3-6.6-3.9-1.3-2.6-2-6.4-2-11.3 0-6.4 2-18.6 5.9-36.6 3.1-14.9 4.7-24.4 4.7-28.5 0-5.6-4.2-8.4-12.5-8.4-5.4 0-9.3 1-11.8 2.9-2.5 2-4.4 5.6-5.9 10.8-2.9 10-5.4 20.8-7.2 32.3-.1.6-.2 1.1-.3 1.6-4.1 3.1-7.7 4.6-10.7 4.6-4.1 0-6.1-2.9-6.1-8.6 0-1.6.7-5.7 2-12.3 1.5-8.2 2.2-13.3 2.2-15.5 0-10.6-5.3-16-16-16-5.4 0-11.3 1.9-17.8 5.6-6.5 3.8-13.1 10.1-19.8 18.9-6.7 8.8-12.8 20.3-18.2 34.4.7-7.2 1.5-13.3 2.5-18.2s2.3-10.6 3.9-17.2c2.5-9.2 3.7-15.1 3.7-17.7 0-2.3-.7-3.8-2-4.7-1.3-.8-3.6-1.2-6.9-1.2-6.1 0-10.8 1.1-14.1 3.3-3.4 2.2-5.8 5.7-7.2 10.4-3.5 11-6 22.4-7.4 34.1-4 3-7.5 4.5-10.5 4.5-4.1 0-6.1-2.9-6.1-8.6 0-1.6.7-5.7 2-12.3 1.5-8.2 2.2-13.3 2.2-15.5 0-10.6-5.3-16-16-16-5.4 0-11.3 1.9-17.8 5.6-6.5 3.8-13.1 10.1-19.8 18.9-6.7 8.8-12.8 20.3-18.2 34.4.7-7.2 1.5-13.3 2.5-18.2s2.3-10.6 3.9-17.2c2.5-9.2 3.7-15.1 3.7-17.7 0-2.3-.7-3.8-2-4.7-1.3-.8-3.6-1.2-6.9-1.2-6.1 0-10.8 1.1-14.1 3.3-3.4 2.2-5.8 5.7-7.2 10.4-5.6 17.8-8.6 36.6-9 56.2-4.9 5.5-8.9 9.8-12.2 12.7-4.5 4-8.4 6-11.7 6-2.1 0-3.8-.9-5.2-2.6-1.3-1.7-2-4.1-2-7.2 0-4.9 2.3-17.8 6.9-38.8 4.1-18.3 6.1-29.6 6.1-33.6 0-2.5-.7-4.1-2.2-5-1.5-.9-4.1-1.4-7.9-1.4-5.4 0-9.5 1.1-12.2 3.2-2.7 2.1-4.7 5.6-6 10.6-3.9 14.6-8 26.9-12.2 36.8-4.2 10-8.1 17.4-11.8 22.4s-6.8 7.4-9.2 7.4c-1.8 0-3.1-.7-3.9-2.1-.8-1.4-1.2-3.8-1.2-7.2 0-5.7 1.6-17.2 4.9-34.4 1-4.9 2.3-10.4 3.9-16.5 1.8-7.5 2.7-12 2.7-13.3 0-2.3-.7-4-2.1-5.2-1.4-1.1-3.9-1.7-7.5-1.7-6.4 0-11.1 1.1-14 3.2-2.9 2.1-5.2 5.6-6.9 10.6-3.8 11.5-6.5 22.3-8.1 32.5-1.6 10.2-2.5 21.5-2.5 33.8 0 10.2 2.3 18.6 7 25.4 4.7 6.8 10.7 10.2 18.1 10.2 6.4 0 12.4-3 17.9-9 5.6-6 9.7-14.5 12.5-25.7 0 11 1.8 19.5 5.5 25.5 3.7 6.1 9.5 9.1 17.3 9.1 10.3 0 19.5-2.8 27.6-8.4 3.4-2.3 6.7-5 10-7.9.5 2.4 1.1 4.6 1.8 6.4 2.5 6.6 6.9 9.8 13.1 9.8 5.1 0 8.8-1.4 11.2-4.1 2.4-2.7 4.5-7.9 6.3-15.6 2.5-10 5.6-19.5 9.6-28.5 3.9-9 7.9-16.2 11.9-21.7s7.2-8.2 9.7-8.2c1.8 0 2.7 1.3 2.7 3.9 0 1.1-.2 3.4-.5 6.6-.5 2.5-.7 4.9-.7 7.4 0 7.5 2.2 13.5 6.8 17.9 4.5 4.4 11.1 6.6 19.8 6.6 6.4 0 12.4-1.5 18.2-4.3.1 13.7 1.3 23.8 3.8 30.1 2.5 6.6 6.9 9.8 13.1 9.8 5.1 0 8.8-1.4 11.2-4.1 2.4-2.7 4.5-7.9 6.3-15.6 2.5-10 5.6-19.5 9.6-28.5 3.9-9 7.9-16.2 11.9-21.7s7.2-8.2 9.7-8.2c1.8 0 2.7 1.3 2.7 3.9 0 1.1-.2 3.4-.5 6.6-.5 2.5-.7 4.9-.7 7.4 0 7.5 2.2 13.5 6.8 17.9 4.5 4.4 11.1 6.6 19.8 6.6 6.1 0 11.9-1.3 17.5-4 .2 11.7 2.6 21.1 7.2 28.3 4.8 7.5 12.6 11.3 23.2 11.3 12.6 0 26-7.9 40.4-23.8.6 1.4 1.3 2.8 2 4.1 7 13.1 17.6 19.6 32.1 19.6 10.5 0 19.9-2.8 28.1-8.4 3.8-2.6 7.5-5.5 11.1-8.7 1 2.5 2.2 4.8 3.7 6.9 4.7 6.8 10.7 10.2 18.1 10.2 6.5 0 12.8-3.1 18.7-9.2s10.5-15.1 13.8-26.9c-1.5 11.3-2.8 20-3.9 26l-.7 5.6c-17.5 13.4-31.1 25.3-40.6 35.7-9.6 10.4-16.1 19.6-19.6 27.6s-5.3 15.9-5.3 23.6c0 8.4 2.6 15.1 7.9 20.3 5.2 5.2 12 7.7 20.4 7.7 17.7 0 31.8-12.3 42.5-36.8 10.6-24.6 19-57.9 25.1-100 .7-4.3 2.9-17.9 6.6-41 4.3-24.1 6.4-38.1 6.4-42-.5-1.1-1.3-2.7-2.7-3.7zM841.5 95.3c3.6-20.1 7.8-37 12.5-50.6 4.7-13.6 9-20.4 12.8-20.4 4.6 0 6.9 6.2 6.9 18.7 0 15.9-3.4 33.4-10.3 52.7-6.9 19.2-16.1 38.4-27.8 57.6.4-18.5 2.3-37.9 5.9-58zM916 304.6c-5.1 9.5-9.7 14.2-13.8 14.2-2.5 0-4.2-.9-5.3-2.7-1.1-1.8-1.6-4.1-1.6-6.9 0-6.6 2.8-14.2 8.5-23 5.6-8.8 14.8-18.5 27.4-29.1-5.1 22.2-10.2 38-15.2 47.5zM204.2 65.2c-5.4-4.1-12.5-5.1-20-2.7-6.7 2.1-13 6.7-17.7 13-10.5 13.9-10.5 31 .1 39.1 3.4 2.6 7.7 4 12.2 4 9.1 0 18.7-5.3 25.5-14.3 10.5-13.8 10.5-31-.1-39.1zm-27.3 18.3c3.1-4.1 7.1-7.1 11.3-8.4 1.3-.4 2.6-.6 3.8-.6 1.7 0 3.1.4 4.2 1.3 4.5 3.4 3.4 13.1-2.4 20.7s-14.8 11.2-19.3 7.8c-4.5-3.5-3.4-13.2 2.4-20.8z"/>
  <path class="st0" d="M106.1 84.1c-50.7 0-74.5 45.3-75.1 87.4-.5 33.6 13.8 57.5 34.9 58.2h1.8c12 0 24.3-4 36.6-11.8 11.9 7.8 24 11.8 36.2 11.8h1.8c24.6-.8 37-31.5 36.5-61.5-.8-40.5-23.8-84.1-72.7-84.1zM75 142.5c1.7-3 5.3-4.5 10.7-4.5 5.5 0 13.8 10.3 13.8 14.5 0 3.6 2.9 6.6 6.6 6.6s6.6-2.9 6.6-6.6c0-4.2 8.3-14.5 13.8-14.5 5.2 0 8.6 1.4 10.2 4.1 3.3 5.9.1 18.7-7.9 31.9-6.3 10.3-14.9 20.1-24.3 27.6-8.2-6.8-15.7-15.5-21.4-24.8-8.5-14-11.8-27.8-8.1-34.3zm65 38.3c10.9-17.9 13.9-34.8 8.1-45.2-2.8-4.9-8.8-10.8-21.6-10.8-8.1 0-15.6 6-20.3 12.1-4.8-6.1-12.2-12.1-20.4-12.1-13.1 0-19.3 6.1-22.2 11.2-6.2 11-3.1 28.8 8.3 47.6 5.7 9.4 13.1 18.3 21.3 25.6-9.2 5.1-18.2 7.6-26.8 7.3-14.9-.5-22.5-23.5-22.2-44.9.6-35.8 20.2-74.4 62-74.4 40.3 0 58.9 35.7 59.4 71.2.4 23.3-8.4 47.7-23.8 48.2-8.5.3-17.2-2.1-26.1-7.2 9.3-8 17.9-18.1 24.3-28.6z"/>
  <path class="st0" d="M131.7 86.5c1.6.3 3.1.5 4.7.5 6.4 0 12.7-2.6 18.2-7.6 6.3-5.7 10.8-14 12.8-23.3 4.2-20-5.1-38.9-20.6-42.1-7.9-1.6-16.1.9-22.9 7.1-6.3 5.7-10.8 14-12.8 23.3-4.2 19.9 5.1 38.8 20.6 42.1zM123.9 47c1.4-6.6 4.5-12.4 8.7-16.3 3-2.7 6.3-4.2 9.4-4.2.7 0 1.4.1 2 .2 8.3 1.7 13.1 13.9 10.5 26.6-1.4 6.6-4.5 12.4-8.7 16.3-3.7 3.3-7.7 4.8-11.4 4-8.3-1.7-13.1-13.9-10.5-26.6zM57.5 79.4c5.5 5 11.8 7.6 18.2 7.6 1.6 0 3.2-.2 4.7-.5 15.5-3.2 24.8-22.1 20.6-42.1C99.1 35 94.6 26.7 88.3 21c-6.9-6.2-15-8.8-22.9-7.1C49.8 17.1 40.6 36 44.7 56c2 9.4 6.5 17.6 12.8 23.4zM68 26.8c.7-.1 1.3-.2 2-.2 3.1 0 6.4 1.4 9.4 4.2 4.3 3.9 7.4 9.6 8.7 16.3C90.7 59.8 86 72 77.7 73.7c-3.7.8-7.8-.6-11.4-4-4.3-3.9-7.4-9.6-8.7-16.3C55 40.7 59.7 28.5 68 26.8zm-34.5 91.8c4.5 0 8.7-1.4 12.1-4 5.2-4 8.1-10.3 8-17.7-.1-7.2-2.9-14.8-7.9-21.4S34.1 64.2 27.2 62.3c-7.2-2.1-14-1-19.2 3-5.2 4-8.1 10.3-8 17.7.1 7.2 2.9 14.8 7.9 21.4 4.8 6.3 11.1 10.9 17.7 13 2.7.8 5.3 1.2 7.9 1.2zm-3.9-13.8c-4.1-1.3-8.1-4.3-11.3-8.4-5.8-7.6-6.9-17.3-2.4-20.7 1.1-.8 2.5-1.3 4.2-1.3 4.9 0 11 3.6 15.1 9.1 5.8 7.6 6.9 17.3 2.4 20.7-1.8 1.4-4.7 1.7-8 .6z"/>
</svg>