<svg xmlns="http://www.w3.org/2000/svg" width="295" height="442"><style>.st0{fill:#333}</style><path class="st0" d="M226.5.5H.5v68h226v226c0 43.6-35.4 79-79 79s-79-35.4-79-79H.5c0 81.2 65.8 147 147 147s147-65.8 147-147V.5h-68z"/><path class="st0" d="M147.5 442C66.2 442 0 375.8 0 294.5v-.5h69v.5c0 43.3 35.2 78.5 78.5 78.5s78.5-35.2 78.5-78.5V69H0V0h295v294.5c0 81.3-66.2 147.5-147.5 147.5zM1 295c.3 80.5 65.9 146 146.5 146 80.8 0 146.5-65.7 146.5-146.5V1H1v67h226v226.5c0 43.8-35.7 79.5-79.5 79.5-43.7 0-79.2-35.4-79.5-79H1z"/><path class="st0" d="M136 328.7l-31.6-31.6 14.2-14.2 18.4 18.4 39.9-34.8 13.2 15z"/></svg>