<svg id="cloud" xmlns="http://www.w3.org/2000/svg" viewBox="0 0 43.988 50">
  <defs>
    <style>
      .cls-1 {
        fill: #00d664;
      }
    </style>
  </defs>
  <path id="Path_128" data-name="Path 128" class="cls-1" d="M116.9,129.5H101.531a2.129,2.129,0,0,0-2.131,2.131v3.107a2.119,2.119,0,0,0,.6,1.476,2.119,2.119,0,0,0-.6,1.476V140.8a2.119,2.119,0,0,0,.6,1.476,2.119,2.119,0,0,0-.6,1.476v3.107a2.129,2.129,0,0,0,2.131,2.131H116.9a2.129,2.129,0,0,0,2.131-2.131V143.75a2.119,2.119,0,0,0-.6-1.476,2.119,2.119,0,0,0,.6-1.476V137.69a2.119,2.119,0,0,0-.6-1.476,2.119,2.119,0,0,0,.6-1.476v-3.107A2.121,2.121,0,0,0,116.9,129.5Zm-16.19,2.131a.823.823,0,0,1,.821-.821H116.9a.823.823,0,0,1,.821.821v3.107a.823.823,0,0,1-.821.821H101.531a.823.823,0,0,1-.821-.821Zm17.024,6.071v3.107a.823.823,0,0,1-.821.821H101.531a.823.823,0,0,1-.821-.821V137.7a.823.823,0,0,1,.821-.821H116.9A.826.826,0,0,1,117.733,137.7Zm0,9.179a.823.823,0,0,1-.821.821H101.531a.823.823,0,0,1-.821-.821v-3.107a.823.823,0,0,1,.821-.821H116.9a.823.823,0,0,1,.821.821v3.107Z" transform="translate(-87.567 -114.083)"/>
  <path id="Path_129" data-name="Path 129" class="cls-1" d="M43.988,11.929a1.377,1.377,0,0,0-1.369-1.369H37.976a1.365,1.365,0,0,0-1.333,1.083L25.619,5.274v-.75a1.318,1.318,0,0,0-.2-.714,1.318,1.318,0,0,0,.2-.714V1.369A1.377,1.377,0,0,0,24.25,0H19.607a1.377,1.377,0,0,0-1.369,1.369V3.1a1.318,1.318,0,0,0,.2.714,1.318,1.318,0,0,0-.2.714v.833L7.345,11.643A1.365,1.365,0,0,0,6.012,10.56H1.369A1.369,1.369,0,0,0,0,11.929v1.726a1.318,1.318,0,0,0,.2.714,1.318,1.318,0,0,0-.2.714V16.81a1.377,1.377,0,0,0,1.369,1.369H3.107v13.44H1.369A1.377,1.377,0,0,0,0,32.988v1.726a1.318,1.318,0,0,0,.2.714,1.318,1.318,0,0,0-.2.714v1.726a1.377,1.377,0,0,0,1.369,1.369H6.012a1.37,1.37,0,0,0,1.286-.9l10.9,6.3v.845a1.318,1.318,0,0,0,.2.714,1.318,1.318,0,0,0-.2.714v1.726A1.377,1.377,0,0,0,19.571,50h4.643a1.377,1.377,0,0,0,1.369-1.369V46.9a1.318,1.318,0,0,0-.2-.714,1.318,1.318,0,0,0,.2-.714V44.75l11.107-6.4a1.37,1.37,0,0,0,1.286.9h4.643a1.377,1.377,0,0,0,1.369-1.369V36.155a1.318,1.318,0,0,0-.2-.714,1.318,1.318,0,0,0,.2-.714V33a1.377,1.377,0,0,0-1.369-1.369H40.881V18.167h1.738A1.377,1.377,0,0,0,43.988,16.8V15.071a1.318,1.318,0,0,0-.2-.714,1.318,1.318,0,0,0,.2-.714Zm-6.071,0a.056.056,0,0,1,.06-.06h4.643a.056.056,0,0,1,.06.06v1.726a.056.056,0,0,1-.06.06H37.976a.056.056,0,0,1-.06-.06ZM24.3,4.524V6.25a.056.056,0,0,1-.06.06H19.6a.056.056,0,0,1-.06-.06V4.524a.056.056,0,0,1,.06-.06h4.643A.056.056,0,0,1,24.3,4.524ZM19.536,1.369a.056.056,0,0,1,.06-.06h4.643a.056.056,0,0,1,.06.06V3.1a.056.056,0,0,1-.06.06H19.6a.056.056,0,0,1-.06-.06ZM1.31,11.929a.056.056,0,0,1,.06-.06H6.012a.056.056,0,0,1,.06.06v1.726a.056.056,0,0,1-.06.06H1.369a.056.056,0,0,1-.06-.06Zm0,4.869V15.071a.056.056,0,0,1,.06-.06H6.012a.056.056,0,0,1,.06.06V16.8a.056.056,0,0,1-.06.06H1.369A.056.056,0,0,1,1.31,16.8Zm0,16.167a.056.056,0,0,1,.06-.06H6.012a.056.056,0,0,1,.06.06V34.69a.056.056,0,0,1-.06.06H1.369a.056.056,0,0,1-.06-.06Zm4.762,4.869a.056.056,0,0,1-.06.06H1.369a.056.056,0,0,1-.06-.06V36.107a.056.056,0,0,1,.06-.06H6.012a.056.056,0,0,1,.06.06Zm13.44,7.607V43.714a.056.056,0,0,1,.06-.06h4.643a.056.056,0,0,1,.06.06V45.44a.056.056,0,0,1-.06.06H19.571A.056.056,0,0,1,19.512,45.44ZM24.274,48.6a.056.056,0,0,1-.06.06H19.571a.056.056,0,0,1-.06-.06V46.869a.056.056,0,0,1,.06-.06h4.643a.056.056,0,0,1,.06.06Zm18.4-10.762a.056.056,0,0,1-.06.06H37.976a.056.056,0,0,1-.06-.06V36.107a.056.056,0,0,1,.06-.06h4.643a.056.056,0,0,1,.06.06Zm0-4.869V34.69a.056.056,0,0,1-.06.06H37.976a.056.056,0,0,1-.06-.06V32.964a.056.056,0,0,1,.06-.06h4.643A.076.076,0,0,1,42.679,32.964ZM39.56,31.6H37.976a1.377,1.377,0,0,0-1.369,1.369V34.69a1.318,1.318,0,0,0,.2.714,1.318,1.318,0,0,0-.2.714v.726L25.5,43.25a1.359,1.359,0,0,0-1.286-.893H19.571a1.369,1.369,0,0,0-1.25.81L7.381,36.833v-.726a1.318,1.318,0,0,0-.2-.714,1.318,1.318,0,0,0,.2-.714V32.952a1.377,1.377,0,0,0-1.369-1.369h-1.6V18.167h1.6A1.377,1.377,0,0,0,7.381,16.8V15.071a1.318,1.318,0,0,0-.2-.714,1.318,1.318,0,0,0,.2-.714v-.512L18.345,6.8a1.369,1.369,0,0,0,1.25.81h4.643a1.361,1.361,0,0,0,1.274-.881l11.1,6.4v.512a1.318,1.318,0,0,0,.2.714,1.318,1.318,0,0,0-.2.714V16.8a1.377,1.377,0,0,0,1.369,1.369h1.6V31.6Zm3.119-14.8a.056.056,0,0,1-.06.06H37.976a.056.056,0,0,1-.06-.06V15.071a.056.056,0,0,1,.06-.06h4.643a.056.056,0,0,1,.06.06Z"/>
  <path id="Path_130" data-name="Path 130" class="cls-1" d="M120.59,155.981h9.286a.69.69,0,1,0,0-1.381H120.59a.69.69,0,1,0,0,1.381Z" transform="translate(-105.626 -136.195)"/>
  <circle id="Ellipse_40" data-name="Ellipse 40" class="cls-1" cx="0.69" cy="0.69" r="0.69" transform="translate(27.048 18.417)"/>
  <path id="Path_131" data-name="Path 131" class="cls-1" d="M120.59,208.681h9.286a.69.69,0,1,0,0-1.381H120.59a.69.69,0,1,0,0,1.381Z" transform="translate(-105.626 -182.621)"/>
  <circle id="Ellipse_41" data-name="Ellipse 41" class="cls-1" cx="0.69" cy="0.69" r="0.69" transform="translate(27.048 24.679)"/>
  <path id="Path_132" data-name="Path 132" class="cls-1" d="M129.876,260H120.59a.691.691,0,0,0-.69.69.681.681,0,0,0,.69.679h9.286a.689.689,0,0,0,.69-.679A.707.707,0,0,0,129.876,260Zm3.488,0a.691.691,0,0,0-.69.69.681.681,0,0,0,.69.679.689.689,0,0,0,.69-.679A.7.7,0,0,0,133.364,260Z" transform="translate(-105.626 -229.048)"/>
</svg>
