<svg xmlns="http://www.w3.org/2000/svg" viewBox="0 0 45 34.036"><defs><style>.a{fill:#08f;}</style></defs><g transform="translate(0 -62.373)"><g transform="translate(0 62.373)"><g transform="translate(0 0)"><path class="a" d="M45,71a.66.66,0,0,0-.193-.466l-.766-.766a.659.659,0,0,0-.932.933l.3.3-2.291,2.291-7.039-7.039,2.291-2.291,5.019,5.019a.659.659,0,0,0,.932-.932l-5.485-5.485a.659.659,0,0,0-.932,0l-2.757,2.757-.054-.054a1.652,1.652,0,0,0-2.336,0l-2.21,2.211a1.647,1.647,0,0,0-.394,1.7l-4.583-.21a.662.662,0,0,0-.5.192L20.91,71.326l-4.126-.5a1.653,1.653,0,0,0-.33-1.859L14.244,66.76a1.652,1.652,0,0,0-2.336,0l-.054.054L9.1,64.058a.659.659,0,0,0-.932,0L7.081,65.141a.659.659,0,1,0,.932.932l.617-.617,2.291,2.291L3.882,74.786,1.592,72.495l4.69-4.69a.659.659,0,1,0-.932-.932L.193,72.029a.659.659,0,0,0,0,.932L2.95,75.718l-.054.054a1.652,1.652,0,0,0,0,2.336l2.211,2.211a1.653,1.653,0,0,0,1.65.411l4.194,4.194a2.362,2.362,0,0,0,.184,3.134l.038.038a2.347,2.347,0,0,0,1.671.692h.028a2.355,2.355,0,0,0,.69,1.7l.038.038h0a2.355,2.355,0,0,0,1.671.691H15.3a2.356,2.356,0,0,0,.69,1.7l.038.038a2.347,2.347,0,0,0,1.67.692h.028a2.355,2.355,0,0,0,.69,1.7l.038.038h0a2.365,2.365,0,0,0,3.133.184l.153.154a2.37,2.37,0,0,0,4.044-1.675c0-.015,0-.029,0-.043h.041a2.364,2.364,0,0,0,2.367-2.41h.043A2.366,2.366,0,0,0,30.6,89.179h.044a2.369,2.369,0,0,0,1.675-4.043L32.18,85l1.237-1.237a.659.659,0,0,0-.932-.932l-1.237,1.237L24.785,77.6H26.7a.659.659,0,0,0,.466-.193l1.416-1.416a.659.659,0,0,0-.932-.932l-1.223,1.223H21.082a.659.659,0,0,0-.466.193l-1.762,1.763a1.057,1.057,0,0,1-1.5-1.5l4.254-4.254.019-.019L23.8,70.3l5.484.251,7.737,7.737-2.688,2.688a.659.659,0,1,0,.932.932l2.759-2.758a1.649,1.649,0,0,0,1.87-.325L42.1,76.616a1.652,1.652,0,0,0,0-2.336l-.054-.054,2.757-2.757A.659.659,0,0,0,45,71ZM6.51,79.386a.334.334,0,0,1-.471,0L3.828,77.175a.333.333,0,0,1,0-.471l9.011-9.011a.333.333,0,0,1,.471,0L15.522,69.9a.334.334,0,0,1,0,.471Zm7.2,7.623c-.051.043-.1.087-.147.135s-.092.1-.134.147a1.046,1.046,0,0,1-1.323-.126h0l-.038-.038a1.044,1.044,0,0,1,1.477-1.477l.038.038A1.046,1.046,0,0,1,13.708,87.009Zm2.427,2.428c-.05.042-.1.087-.147.134s-.092.1-.134.147a1.046,1.046,0,0,1-1.323-.127l-.038-.038a1.046,1.046,0,0,1-.127-1.322c.051-.043.1-.087.147-.135s.092-.1.134-.147a1.045,1.045,0,0,1,1.322.126l.039.039A1.046,1.046,0,0,1,16.135,89.437Zm2.428,2.427c-.051.043-.1.087-.147.135s-.092.1-.134.147a1.045,1.045,0,0,1-1.323-.127h0l-.038-.038a1.046,1.046,0,0,1-.127-1.323c.05-.042.1-.087.147-.134s.092-.1.134-.147A1.045,1.045,0,0,1,18.4,90.5l.038.038A1.046,1.046,0,0,1,18.563,91.864Zm2.3,2.582a1.045,1.045,0,0,1-1.477,0l-.038-.038a1.046,1.046,0,0,1-.127-1.322c.051-.043.1-.087.147-.135s.092-.1.135-.147a1.045,1.045,0,0,1,1.322.127l.039.039A1.045,1.045,0,0,1,20.864,94.446ZM16.426,75.81a2.376,2.376,0,0,0,3.36,3.359L21.356,77.6H22.92l8.469,8.469A1.05,1.05,0,0,1,30,87.635c-.027-.03-5.167-5.156-5.167-5.156a.659.659,0,0,0-.932.932l5.074,5.074q.044.044.089.085a1.05,1.05,0,0,1-1.474,1.475c-.027-.03-5.167-5.156-5.167-5.156a.659.659,0,0,0-.932.932L26.561,90.9q.044.044.089.085a1.05,1.05,0,0,1-1.474,1.475c-.028-.03-5.167-5.156-5.167-5.156a.659.659,0,1,0-.932.932l5.074,5.074q.044.044.09.086a1.05,1.05,0,0,1-1.569,1.392l-.312-.312a2.365,2.365,0,0,0-.564-2.434L21.758,92a2.347,2.347,0,0,0-1.671-.692H20.06c0-.009,0-.018,0-.027a2.347,2.347,0,0,0-.692-1.671l-.038-.038a2.355,2.355,0,0,0-1.7-.69,2.355,2.355,0,0,0-.69-1.7l-.039-.039a2.347,2.347,0,0,0-1.671-.692H15.2a2.356,2.356,0,0,0-.69-1.7l-.038-.038a2.366,2.366,0,0,0-2.434-.566L7.826,79.934l7.9-7.9,3.995.481Zm24.746-.126-2.21,2.211a.334.334,0,0,1-.471,0h0l-.068-.068,0,0,0,0-8.937-8.937a.333.333,0,0,1,0-.471L31.689,66.2a.333.333,0,0,1,.471,0l9.012,9.012a.333.333,0,0,1,0,.471Z" transform="translate(0 -62.373)"/></g></g><g transform="translate(37.606 74.177)"><g transform="translate(0 0)"><path class="a" d="M429.414,197.283l-.421-.421a.659.659,0,0,0-.932.932l.421.421a.659.659,0,1,0,.932-.932Z" transform="translate(-427.867 -196.669)"/></g></g><g transform="translate(5.655 75.668)"><g transform="translate(0 0)"><path class="a" d="M65.885,213.833a.659.659,0,0,0-.932,0l-.421.421a.659.659,0,1,0,.932.932l.421-.421A.659.659,0,0,0,65.885,213.833Z" transform="translate(-64.338 -213.64)"/></g></g></g></svg>