<svg xmlns="http://www.w3.org/2000/svg" viewBox="0 0 40 40.61"><defs><style>.a{fill:#08f;}</style></defs><g transform="translate(-3.658)"><g transform="translate(3.658)"><path class="a" d="M32.325,0h-24A4.673,4.673,0,0,0,3.658,4.667V28.611a4.673,4.673,0,0,0,4.667,4.667h7.333V31.945H8.325a3.337,3.337,0,0,1-3.333-3.333V17.333H9.273a.717.717,0,0,0,.611-.989,2.667,2.667,0,1,1,4.883,0,.691.691,0,0,0,.611.989h4.281v4a3.9,3.9,0,0,0-.667-.055,4,4,0,0,0-1.6,7.667l.533-1.221a2.667,2.667,0,0,1,1.067-5.112,2.634,2.634,0,0,1,1.067.225.667.667,0,0,0,.933-.611V17.333h3.39a3.9,3.9,0,0,0-.057.667,4.011,4.011,0,0,0,3.2,3.92l.267-1.306A2.675,2.675,0,0,1,25.658,18a2.634,2.634,0,0,1,.225-1.067A.667.667,0,0,0,25.273,16H20.991V12.61a3.9,3.9,0,0,0,.667.057,4,4,0,0,0,0-8,3.9,3.9,0,0,0-.667.057V1.333H32.325a3.337,3.337,0,0,1,3.333,3.333V16H31.377a.667.667,0,0,0-.611.933A2.634,2.634,0,0,1,30.991,18h1.333a3.9,3.9,0,0,0-.057-.667h4.057a.667.667,0,0,0,.667-.667v-12A4.673,4.673,0,0,0,32.325,0ZM21.658,6a2.667,2.667,0,0,1,0,5.333,2.634,2.634,0,0,1-1.067-.225.667.667,0,0,0-.933.611v4.226H16.273a3.893,3.893,0,0,0,.052-.611v-.055a4,4,0,0,0-8,0v.055a3.893,3.893,0,0,0,.052.611H4.991V4.667A3.337,3.337,0,0,1,8.325,1.333H19.658V5.615a.667.667,0,0,0,.933.611A2.634,2.634,0,0,1,21.658,6Z" transform="translate(-3.658)"/></g><g transform="translate(16.65 18.61)"><path class="a" d="M185.145,233.361l-5.6-3.859-2.153-5.751a.667.667,0,0,0-.857-.392l-.037.015-4.333,1.917a.667.667,0,0,0-.353.848c.072.187.139.328.211.475a5.084,5.084,0,0,1,.218.5,2.668,2.668,0,1,1-5.156.8.667.667,0,0,0-.9-.659L161.546,229a.667.667,0,0,0-.389.857l1.663,4.442a3.757,3.757,0,0,0-.647.179,4.009,4.009,0,1,0,3.417,7.221l1.192,3.184a.667.667,0,0,0,.858.39h0l6.605-2.489a3.58,3.58,0,0,0,2.111,1.885l.421-1.267a2.248,2.248,0,0,1-1.275-1.089l2.01-.757a4.653,4.653,0,0,0,4.39,3.094v-1.333a3.354,3.354,0,0,1-3.333-3.333.667.667,0,0,0-.2-.471l-2.321-2.321a.989.989,0,0,1-.091-1.286.971.971,0,0,1,.717-.391.956.956,0,0,1,.765.286l4.655,4.655.943-.943-1.377-1.377a4.651,4.651,0,0,0-.059-3.117l-1.249-3.337,4.029,2.774a2,2,0,0,1,.853,1.639v8.611h1.333V236.1A3.339,3.339,0,0,0,185.145,233.361Zm-4.788,2.125a3.341,3.341,0,0,1,.195,1.535l-2.164-2.163a2.317,2.317,0,0,0-3.317,3.235l.041.041,2.109,2.109-9.421,3.549-1.271-3.4a.667.667,0,0,0-.479-.417.675.675,0,0,0-.145-.016.667.667,0,0,0-.467.19,2.667,2.667,0,1,1-2.792-4.426,2.565,2.565,0,0,1,.659-.149,2.366,2.366,0,0,1,.418-.014.667.667,0,0,0,.659-.9l-1.741-4.649,3.175-1.2a4,4,0,1,0,7.671-2.172c-.061-.164-.117-.294-.17-.41l3.067-1.358Z" transform="translate(-159.563 -223.316)"/></g></g></svg>