<svg xmlns="http://www.w3.org/2000/svg" width="861.71" height="200">
  <defs>
    <style>
      .cls-1{fill:#000}
    </style>
    <linearGradient id="Degradado_sin_nombre_26" x1="94.66" y1="5.06" x2="94.66" y2="194.94" gradientUnits="userSpaceOnUse">
      <stop offset="0" stop-color="#dfa100"/>
      <stop offset="1" stop-color="#e86314"/>
    </linearGradient>
    <linearGradient id="Degradado_sin_nombre_25" x1="94.66" y1="5.06" x2="94.66" y2="172.4" gradientUnits="userSpaceOnUse">
      <stop offset="0" stop-color="#fff"/>
      <stop offset="1" stop-color="#fff" stop-opacity="0"/>
    </linearGradient>
  </defs>
  <g id="Layer_2" data-name="Layer 2">
    <g id="Capa_1" data-name="Capa 1">
      <g id="_Group_" data-name="&lt;Group&gt;">
        <g id="_Group_2" fill="#000" data-name="&lt;Group&gt;">
          <path id="_Compound_Path_" data-name="&lt;Compound Path&gt;" d="M220.48 170.22v-60.11q0-25.32 9.47-35a29.29 29.29 0 0 1 11.23-7.27A46.53 46.53 0 0 1 252.74 65q5-.44 13.55-.44h19.37V83h-23.34c-2.94 0-5.21.07-6.82.22a20.89 20.89 0 0 0-5.72 1.55A14.48 14.48 0 0 0 244 89q-4.19 5.29-4.18 21.14v60.11z"/>
          <path id="_Compound_Path_2" data-name="&lt;Compound Path&gt;" d="M306.91 78.4q15.41-16.07 38.53-16.07a51.86 51.86 0 0 1 21 4.29 54.91 54.91 0 0 1 32.92 50.75 56.61 56.61 0 0 1-4.07 21.47A54.17 54.17 0 0 1 384 156.35a53.82 53.82 0 0 1-77.07 0 54.14 54.14 0 0 1-11.33-17.51 56.27 56.27 0 0 1-4.08-21.47Q291.5 94 306.91 78.4zm38.53 2.42Q330 80.82 320.68 91t-9.35 26.42q0 16.29 9.35 26.42t24.77 10.12q15.63 0 24.88-10.23t9.25-26.31q0-16.07-9.25-26.31t-24.88-10.29z"/>
          <path id="_Compound_Path_3" data-name="&lt;Compound Path&gt;" d="M411 128.39V16.09h19.81v112.3a37.08 37.08 0 0 0 1.87 12.87 12.59 12.59 0 0 0 5.84 7.05 26.13 26.13 0 0 0 7.7 2.75 59.42 59.42 0 0 0 9.91.66v18.49q-24.66 0-34.91-9.47T411 128.39z"/>
          <path id="_Compound_Path_4" data-name="&lt;Compound Path&gt;" d="M544.42 75.1Q533 64.53 511.61 64.53h-36.32V83h35.23q26 0 26 26.64l-.42 2.06c-5-3.44-22.48-7.13-29.08-7.13q-17.62 0-29.29 8.37T466 137.41q0 16.07 11 24.44t29.72 8.37h49.11v-64.73q.04-19.83-11.41-30.39zm-37 76.63q-21.58 0-21.57-14.53a13.35 13.35 0 0 1 5.72-11.57q5.72-4.07 16.07-4.07c8 0 21.5 4.2 28.84 7.25v22.92z"/>
          <path id="_Compound_Path_5" data-name="&lt;Compound Path&gt;" d="M574.31 64.53h97.1q15.64 0 24.89 5.94 9.46 5.94 12.44 15.41a76.33 76.33 0 0 1 3 22.68v61.65h-19.41v-61.64q0-17.17-10.35-22.68Q676.7 83 660.62 83h-9v87.19h-19.4V83h-38.53v87.19h-19.38z"/>
          <path id="_Compound_Path_6" data-name="&lt;Compound Path&gt;" d="M751.84 170.22h-19.37l-.11-105.68h19.48zM731.58 42.51a13.1 13.1 0 0 1-2.86-8.14 12.66 12.66 0 0 1 2.86-8q2.86-3.64 8.81-3.64c4 0 6.9 1.21 8.82 3.64a12.73 12.73 0 0 1 0 16.07c-1.92 2.42-4.85 3.63-8.82 3.63s-6.9-1.21-8.81-3.56z"/>
          <path id="_Compound_Path_7" data-name="&lt;Compound Path&gt;" d="M842.34 64.53h19.38v3.08q0 29.71-23.78 47.56A56.75 56.75 0 0 1 855.55 136a58.59 58.59 0 0 1 6.16 26.31v7.93h-19.37v-7.93A42.41 42.41 0 0 0 836.4 140a38.32 38.32 0 0 0-17.62-15.19 39.55 39.55 0 0 0-17.5 15.86 44.47 44.47 0 0 0-6.06 22.9v6.6h-19.38v-6.6q0-30.83 23.78-48.44-23.77-17.83-23.78-48.88v-1.72h19.38v1.76a44.47 44.47 0 0 0 6.06 22.9 40.85 40.85 0 0 0 17.5 16.07q23.56-11 23.56-37.65z"/>
        </g>
        <g id="_Group_3" data-name="&lt;Group&gt;">
          <path id="_Compound_Path_8" data-name="&lt;Compound Path&gt;" class="cls-1" d="M166.94 200H22.39A22.41 22.41 0 0 1 0 177.61V42.26a22.41 22.41 0 0 1 22.39-22.39h10.82v-2.3a17.57 17.57 0 1 1 35.14 0v2.3h8.75v-2.3a17.57 17.57 0 1 1 35.13 0v2.3H121v-2.3a17.57 17.57 0 1 1 35.14 0v2.3h10.83a22.41 22.41 0 0 1 22.39 22.39v135.35A22.41 22.41 0 0 1 166.94 200z"/>
        </g>
        <path id="_Compound_Path_9" data-name="&lt;Compound Path&gt;" d="M166.94 24.93h-15.89v-7.36a12.51 12.51 0 0 0-25 0v7.36h-18.88v-7.36a12.51 12.51 0 0 0-25 0v7.36H63.29v-7.36a12.51 12.51 0 0 0-25 0v7.36h-15.9A17.35 17.35 0 0 0 5.06 42.26v135.35a17.35 17.35 0 0 0 17.33 17.33h144.55a17.35 17.35 0 0 0 17.33-17.33V42.26a17.35 17.35 0 0 0-17.33-17.33zm-33.37-7.36a5 5 0 0 1 10 0v24.64a5 5 0 0 1-10 0zm-43.88 0a5 5 0 1 1 10 0v24.64a5 5 0 1 1-10 0zm-43.88 0a5 5 0 0 1 10 0v24.64a5 5 0 0 1-10 0z" fill="url(#Degradado_sin_nombre_26)"/>
        <path id="_Path_" data-name="&lt;Path&gt;" d="M184.27 69.12V42.26a17.35 17.35 0 0 0-17.33-17.33h-15.89v-7.36a12.51 12.51 0 1 0-25 0v7.36h-18.88v-7.36a12.51 12.51 0 0 0-25 0v7.36H63.29v-7.36a12.51 12.51 0 1 0-25 0v7.36h-15.9A17.35 17.35 0 0 0 5.06 42.26V172.4z" opacity=".5" fill="url(#Degradado_sin_nombre_25)"/>
        <path id="_Compound_Path_10" data-name="&lt;Compound Path&gt;" class="cls-1" d="M126.38 101.08v37.58a21.93 21.93 0 0 0-8.61.78c-9.39 2.79-15.27 10.85-13.14 18s11.46 10.67 20.84 7.88c8.11-2.42 13.58-8.76 13.55-15.05h.06V89.65c-.46-10.64-5.25-16.44-9.19-19.44-10.53-8-25.49-4.85-26.88-4.53L77.3 70.55l-.91.24C56.86 77.47 54 99.1 55.15 110v40.44a21.94 21.94 0 0 0-8.61.78c-9.39 2.79-15.27 10.85-13.14 18s11.46 10.67 20.84 7.88c8.34-2.48 13.88-9.12 13.53-15.58h.09v-50.19zM80.08 83l25.5-4.84c2.73-.63 11.65-1.58 16.62 2.2 2.25 1.71 3.52 4.4 4 7.89l-57.86 10.1c1.16-5.9 4.18-12.61 11.74-15.35z"/>
      </g>
    </g>
  </g>
</svg>