<svg xmlns="http://www.w3.org/2000/svg" width="254" height="317.2"><style>.st0{fill:#50a4a3}</style><path class="st0" d="M159 110.3V63H94v81.6c23.5-8.1 45.3-19.7 65-34.3zM232 23.7V0h-65v104.2c27-21.8 49.2-49.1 65-80.5zM87 146.9V110H22v47.8c22.5-.7 44.3-4.4 65-10.9z"/><path d="M238 237v7h-6V52.1c-16.8 27.8-39 52-65 71V196h-8v-67.3c-19.8 13.3-41.7 23.8-65 30.9V196h-7v-34.5c-20.8 5.6-42.6 8.5-65 8.4V244h-6v-7H0v29h16v-7h6v16.5c27.6 25.9 64.7 41.7 105 41.8 40.3-.1 77.4-15.8 105-41.8V259h6v7h16v-29h-16zM88 265H59v-29h29v29zm105 0h-29v-29h29v29z" fill="#358989"/></svg>